<svg id="Layer_1" data-name="Layer 1" xmlns="http://www.w3.org/2000/svg" viewBox="0 0 488.09 358.38"><defs><style>.cls-1{fill:#e6e6e5;}.cls-2{fill:#ccc;}.cls-3{fill:#1a2338;}.cls-4{fill:#fff;}.cls-5{fill:#e5e5e5;}.cls-6{fill:#f26b42;}.cls-7{fill:#f8b6b7;}.cls-8{fill:#302e41;}.cls-9{fill:#f4db7d;}.cls-10{fill:#f9b7b8;}.cls-11{fill:#403e56;}.cls-12{fill:#9d2920;}.cls-13{fill:#f8b4b6;}.cls-14{fill:#f3f3f3;}</style></defs><path class="cls-1" d="M296.63,253.09l-6.76-2.85-4.64-33.91h-61.8l-5,33.77-6.05,3a1.44,1.44,0,0,0,.64,2.72h83.08a1.44,1.44,0,0,0,.56-2.76Z" transform="translate(-5.43 -1.85)"/><path class="cls-2" d="M406.44,220.84H102.89a6,6,0,0,1-6-6V172H412.45v42.81A6,6,0,0,1,406.44,220.84Z" transform="translate(-5.43 -1.85)"/><path class="cls-3" d="M412.76,192.25H96.61V9.1a7.26,7.26,0,0,1,7.25-7.25H405.51a7.26,7.26,0,0,1,7.25,7.25Z" transform="translate(-5.43 -1.85)"/><path class="cls-4" d="M393.88,179H115.5a5.59,5.59,0,0,1-5.59-5.59V20.73a5.6,5.6,0,0,1,5.59-5.59H393.88a5.6,5.6,0,0,1,5.59,5.59V173.37A5.59,5.59,0,0,1,393.88,179Z" transform="translate(-5.43 -1.85)"/><rect class="cls-5" x="224.35" y="19.21" width="40.57" height="3.81"/><rect class="cls-5" x="224.35" y="28.45" width="40.57" height="3.81"/><rect class="cls-5" x="224.35" y="37.89" width="40.57" height="3.81"/><rect class="cls-5" x="224.35" y="47.33" width="40.57" height="3.81"/><rect class="cls-6" x="233.96" y="59.33" width="21.35" height="3.31"/><rect class="cls-5" x="132.18" y="55.12" width="0.36" height="1.08"/><path class="cls-5" d="M138,81.14h-.37V78.83H138Zm0-4.62h-.37V74.21H138Zm0-4.62h-.37V69.6H138Zm0-4.61h-.37V65H138Zm0-4.62h-.37V60.36H138Z" transform="translate(-5.43 -1.85)"/><rect class="cls-5" x="132.18" y="81.6" width="0.36" height="1.08"/><rect class="cls-5" x="171.74" y="55.12" width="0.36" height="1.08"/><path class="cls-5" d="M177.54,81.14h-.37V78.83h.37Zm0-4.62h-.37V74.21h.37Zm0-4.62h-.37V69.6h.37Zm0-4.61h-.37V65h.37Zm0-4.62h-.37V60.36h.37Z" transform="translate(-5.43 -1.85)"/><rect class="cls-5" x="171.74" y="81.6" width="0.36" height="1.08"/><rect class="cls-5" x="191.69" y="33.91" width="0.36" height="1.08"/><path class="cls-5" d="M197.49,81.23h-.36V79h.36Zm0-4.44h-.36V74.57h.36Zm0-4.44h-.36V70.14h.36Zm0-4.43h-.36V65.7h.36Zm0-4.44h-.36V61.26h.36Zm0-4.44h-.36V56.82h.36Zm0-4.44h-.36V52.38h.36Zm0-4.44h-.36V47.94h.36Zm0-4.44h-.36V43.5h.36Zm0-4.44h-.36V39.07h.36Z" transform="translate(-5.43 -1.85)"/><rect class="cls-5" x="191.69" y="81.6" width="0.36" height="1.08"/><rect class="cls-5" x="211.45" y="25.24" width="0.36" height="1.08"/><path class="cls-5" d="M217.25,81.24h-.37V79h.37Zm0-4.42h-.37V74.61h.37Zm0-4.42h-.37V70.18h.37Zm0-4.43h-.37V65.76h.37Zm0-4.42h-.37V61.34h.37Zm0-4.42h-.37V56.92h.37Zm0-4.42h-.37V52.5h.37Zm0-4.42h-.37V48.07h.37Zm0-4.43h-.37V43.65h.37Zm0-4.42h-.37V39.23h.37Zm0-4.42h-.37V34.81h.37Zm0-4.42h-.37V30.39h.37Z" transform="translate(-5.43 -1.85)"/><rect class="cls-5" x="211.45" y="81.6" width="0.36" height="1.08"/><rect class="cls-5" x="152.05" y="40.6" width="0.36" height="1.08"/><path class="cls-5" d="M157.85,81.35h-.37v-2.1h.37Zm0-4.2h-.37v-2.1h.37Zm0-4.2h-.37V70.84h.37Zm0-4.21h-.37v-2.1h.37Zm0-4.2h-.37v-2.1h.37Zm0-4.2h-.37v-2.1h.37Zm0-4.2h-.37V54h.37Zm0-4.21h-.37v-2.1h.37Zm0-4.2h-.37v-2.1h.37Z" transform="translate(-5.43 -1.85)"/><rect class="cls-5" x="152.05" y="81.6" width="0.36" height="1.08"/><path class="cls-3" d="M218.78,85H117.62a.35.35,0,0,1-.31-.38V27.34a.32.32,0,1,1,.63,0v57H218.78a.38.38,0,0,1,0,.75Z" transform="translate(-5.43 -1.85)"/><polygon class="cls-3" points="172.08 55.62 152.2 40.73 132.59 55.42 132.14 54.82 152.2 39.79 171.99 54.61 191.66 33.09 191.74 33.06 211.57 25.07 211.85 25.76 192.09 33.72 172.08 55.62"/><circle class="cls-6" cx="132.36" cy="55.12" r="2.25"/><circle class="cls-6" cx="152.2" cy="40.52" r="2.25"/><circle class="cls-6" cx="172.04" cy="55.12" r="2.25"/><circle class="cls-6" cx="191.87" cy="33.41" r="2.25"/><circle class="cls-6" cx="211.71" cy="25.17" r="2.25"/><path class="cls-7" d="M442.75,263.61a4.1,4.1,0,0,0-.5-5.77,4.47,4.47,0,0,0-.59-.41l2.72-14.3-7,2.91-1.52,13.13a4.12,4.12,0,0,0,6.87,4.44Z" transform="translate(-5.43 -1.85)"/><polygon class="cls-7" points="472.13 349.5 466.21 349.5 463.4 326.7 472.13 326.7 472.13 349.5"/><path class="cls-8" d="M479.07,357.08H460v-.24a7.42,7.42,0,0,1,7.42-7.42h11.64Z" transform="translate(-5.43 -1.85)"/><polygon class="cls-7" points="439.82 349.5 433.91 349.5 431.09 326.7 439.82 326.7 439.82 349.5"/><path class="cls-8" d="M445.31,357.08H426.25v-.24a7.42,7.42,0,0,1,7.42-7.42h11.64Z" transform="translate(-5.43 -1.85)"/><polygon class="cls-3" points="439.33 253.19 433.55 266.52 428.77 343.15 440.83 342.67 444.12 306.14 454.28 273.61 460.12 309.88 462.53 341.7 472.5 342.13 476.48 253.19 439.33 253.19"/><path class="cls-9" d="M473.69,189.26l-16.77.42-9.84,5.06L446.54,232l-6.15,25.75s38.37,2.64,43.68-1.22l-6.27-29.41,8.41-31.79Z" transform="translate(-5.43 -1.85)"/><path class="cls-9" d="M448.87,195.32l-1.79-.58s-5.69,3.64-5.15,12.46c0,0-.21,4.56,0,7.6.24,3.48-6.75,38.09-6.75,38.09H445.3l4.34-31.34Z" transform="translate(-5.43 -1.85)"/><path class="cls-9" d="M485.94,264.09a4.09,4.09,0,0,1,1.1-6.18l-2.72-14.3,7,2.91,1.51,13.13a4.12,4.12,0,0,1-6.87,4.44Z" transform="translate(-5.43 -1.85)"/><path class="cls-9" d="M483.68,195.8l1.8-.58s5.68,3.65,5.14,12.46c0,0,.21,4.57,0,7.6-.24,3.49,2.89,38.1,2.89,38.1H483.39L479.05,222Z" transform="translate(-5.43 -1.85)"/><path class="cls-7" d="M477.81,173.62A11.63,11.63,0,1,1,466.18,162h0a11.6,11.6,0,0,1,11.63,11.57Z" transform="translate(-5.43 -1.85)"/><path class="cls-8" d="M454.6,158c1.36-2.93,4-2.35,6.3-1.36,2.92-.64,5.69-2.58,8.84-1.44,3.1,4.51,13.5,3.18,11.29,10.52,0,1.76,3.3.73,2.73,3.61,1.75,5.54-6.33,16-11,13.83,1.15-2.11,3.77-6.89-.2-7.36-8.56,8-.88-15.16-11.63-8.43C457.39,170.62,452.52,161.26,454.6,158Z" transform="translate(-5.43 -1.85)"/><path class="cls-8" d="M66.76,161.24l-26.64,3.33a2.1,2.1,0,0,1-2.33-1.81l-1.43-11.48a15.51,15.51,0,0,1,30.78-3.84l1.43,11.48A2.08,2.08,0,0,1,66.76,161.24Z" transform="translate(-5.43 -1.85)"/><circle class="cls-10" cx="50.37" cy="149.13" r="11.37"/><path class="cls-8" d="M70.92,148.13l-16.29,2-.46-2.31-.54,2.44-2.51.31L50.21,146l-1.08,4.84-4.85.6,0-.23A12.29,12.29,0,0,1,54.9,137.53l2.3-.28A12.28,12.28,0,0,1,70.89,147.9Z" transform="translate(-5.43 -1.85)"/><path class="cls-10" d="M111.41,191.53a5.26,5.26,0,0,0-8.65-5.87L88.05,194l5.21,5.38,10.33-6a4.46,4.46,0,0,0,.78.49,5.23,5.23,0,0,0,7-2.29Z" transform="translate(-5.43 -1.85)"/><path class="cls-11" d="M72.64,201.13c-2.56-3.63-19-25.3-19.19-25.52l-.36-.47,12.77,1.3L77,192.1l20.47-4,2.11,10.68-.23.06c-.74.19-14.14,3.6-21.76,3.6C75.13,202.4,73.28,202.05,72.64,201.13Z" transform="translate(-5.43 -1.85)"/><path class="cls-11" d="M65.7,186.05,59.55,171.7l7.16,4.05,5.62,15.17,0,8.24C73.44,201,89.05,226.9,85.72,233s-9.82,9.3-9.89,9.33l-.3.14Z" transform="translate(-5.43 -1.85)"/><polygon class="cls-10" points="77.27 302.78 87.37 302.77 84.11 329.19 77.27 329.19 77.27 302.78"/><path class="cls-8" d="M81,328.8H94.44a8.58,8.58,0,0,1,8.59,8.59v.28H81Z" transform="translate(-5.43 -1.85)"/><polygon class="cls-10" points="11.95 298.09 21.55 301.24 10.23 325.32 3.73 323.19 11.95 298.09"/><path class="cls-8" d="M8.2,322.37,21,326.56h0A8.59,8.59,0,0,1,26.5,337.4l-.09.27-21-6.87Z" transform="translate(-5.43 -1.85)"/><path class="cls-8" d="M5.52,318.67l20.81-46.49,9.4-27.91c-3.31-8.86,2.47-17.07,8.06-25l.67-.95L43.34,202l24.75-3.7L99.7,323.86l.09.32-20.66-.28-5.89-39.83L58.41,253.32,41.94,288.13,22.42,320.72Z" transform="translate(-5.43 -1.85)"/><path class="cls-6" d="M44.27,218.84l-.09-.09,6.25-52,12.36,7.84,2.8,5c.55.47,6.42,5.72,2,12.09l5.1,22.53-.14.1c2.12,7-2,11.09-5.56,11.09C64,225.48,48.79,223.16,44.27,218.84Z" transform="translate(-5.43 -1.85)"/><path class="cls-11" d="M26.19,232.57l-.19-.09,7.86-35.91L36,166.06l0-.06a4.11,4.11,0,0,1,2.81-1.66c2.71-.36,5.65,1.69,6.21,2.1l6.73-1.12.1.11c4.1,4.58-1.55,51.41-6.33,67-1.2,3.92-2,4.53-2.46,4.65a6,6,0,0,1-1.46.15C36.46,237.2,26.65,232.77,26.19,232.57Z" transform="translate(-5.43 -1.85)"/><path class="cls-10" d="M46.18,225.28A5.27,5.27,0,0,0,47.82,215L34,205.17l-2.66,7L41.23,219a5.77,5.77,0,0,0-.11.92,5.24,5.24,0,0,0,5.06,5.41Z" transform="translate(-5.43 -1.85)"/><path class="cls-11" d="M34.48,217.42c-.65-.78-15.73-19.17-13.43-23.19,2.2-3.86,14.85-27.95,15-28.19l.27-.53,4.24,12.12-9.47,16.71,12.34,16.83-8.78,6.43Z" transform="translate(-5.43 -1.85)"/><rect class="cls-3" x="110.97" y="94.6" width="99.68" height="76.15"/><rect class="cls-4" x="112.22" y="95.55" width="97.18" height="74.24"/><path class="cls-12" d="M167.82,151.1s0,0,0,0a23.93,23.93,0,0,0,.53-47.77.53.53,0,0,0-.41.15.57.57,0,0,0-.18.39l-.52,46.68a.55.55,0,0,0,.54.55Z" transform="translate(-5.43 -1.85)"/><path class="cls-1" d="M149.05,111.05a.76.76,0,0,1,.5.21l16.07,16.44a.7.7,0,0,1,.2.5l-.25,22.33a.74.74,0,0,1-.23.51.75.75,0,0,1-.53.19,24.09,24.09,0,0,1-16.29-39.94.71.71,0,0,1,.51-.24Z" transform="translate(-5.43 -1.85)"/><path class="cls-6" d="M165.39,103.14a.77.77,0,0,1,.48.2.7.7,0,0,1,.22.51L165.86,124a.7.7,0,0,1-.71.69.71.71,0,0,1-.49-.21l-14-14.34a.71.71,0,0,1,0-1l0,0a24.17,24.17,0,0,1,14.68-6Z" transform="translate(-5.43 -1.85)"/><path class="cls-6" d="M158.17,160.78a4.3,4.3,0,1,1-4.25-4.34h0A4.3,4.3,0,0,1,158.17,160.78Z" transform="translate(-5.43 -1.85)"/><path class="cls-12" d="M170.45,160.92a4.3,4.3,0,1,1-4.25-4.34h0A4.3,4.3,0,0,1,170.45,160.92Z" transform="translate(-5.43 -1.85)"/><path class="cls-1" d="M182.73,161.06a4.3,4.3,0,1,1-4.25-4.35h0A4.31,4.31,0,0,1,182.73,161.06Z" transform="translate(-5.43 -1.85)"/><polygon class="cls-13" points="398.36 333.23 390.67 333.23 393.15 353.33 398.36 353.33 398.36 333.23"/><path class="cls-8" d="M405.13,360.23H388.32V360a6.54,6.54,0,0,1,6.54-6.54h10.27Z" transform="translate(-5.43 -1.85)"/><polygon class="cls-13" points="373.71 333.23 366.02 333.23 368.5 353.33 373.71 353.33 373.71 333.23"/><path class="cls-8" d="M380.47,360.23h-16.8V360a6.54,6.54,0,0,1,6.54-6.54h10.26Z" transform="translate(-5.43 -1.85)"/><path class="cls-13" d="M369.42,263.29a4.59,4.59,0,0,0,7.54-5.12l11.25-38.88L379,215.65l-8.48,40.72a5.13,5.13,0,0,0-.65.47,4.56,4.56,0,0,0-.42,6.45Z" transform="translate(-5.43 -1.85)"/><path class="cls-8" d="M378.82,252.8,365.88,301l4.74,46.23,10.48.24-2.28-41.72L391.88,285l2.83,62.78,9.48-.72,5.27-54c7.89-18.61,3.77-33.7,3.77-33.7l-3.84-3.9Z" transform="translate(-5.43 -1.85)"/><path class="cls-9" d="M376.82,256l-.05-.07L380.29,233l3.81-25.83a6.86,6.86,0,0,1,7-5.85l18.61.64-2,32.37,5.73,25.16-.24,0A146.91,146.91,0,0,1,396,260.7C387.82,260.7,379.35,259.73,376.82,256Z" transform="translate(-5.43 -1.85)"/><path class="cls-9" d="M387.27,233.69l-13-1.05s3.9-15.77,6-25.48S389,202,389,202l3.78,4.75Z" transform="translate(-5.43 -1.85)"/><path class="cls-13" d="M428.65,263.71a4.59,4.59,0,0,1-7.55-5.12l-11.24-38.87,9.24-3.64,8.48,40.71a4.36,4.36,0,0,1,.65.48,4.56,4.56,0,0,1,.42,6.44Z" transform="translate(-5.43 -1.85)"/><path class="cls-9" d="M410.8,234.12l13-1.05s-3.9-15.77-6-25.49S409,202.4,409,202.4l-3.79,4.74Z" transform="translate(-5.43 -1.85)"/><path class="cls-8" d="M387.4,194.71V184.09h0a14.24,14.24,0,0,1,28.48,0v10.62a1.91,1.91,0,0,1-1.91,1.92H389.32A1.93,1.93,0,0,1,387.4,194.71Z" transform="translate(-5.43 -1.85)"/><circle class="cls-13" cx="393.49" cy="183.7" r="10.44"/><path class="cls-8" d="M384,184.94a11.27,11.27,0,0,1,11.26-11.27h2.12a11.29,11.29,0,0,1,11.27,11.27v.21H404.2l-1.53-4.29-.31,4.29H400l-.77-2.16-.16,2.16H384Z" transform="translate(-5.43 -1.85)"/><path class="cls-8" d="M397.69,197.82a1.88,1.88,0,0,1-.15-2c2.25-4.28,5.41-12.2,1.22-17.08l-.3-.35h12.15v18.24l-11,2a1.87,1.87,0,0,1-.34,0A1.89,1.89,0,0,1,397.69,197.82Z" transform="translate(-5.43 -1.85)"/><circle class="cls-6" cx="248.54" cy="109.67" r="10.68"/><path class="cls-14" d="M275.84,171.83h0a1.42,1.42,0,0,1-1.42-1.41V87.16a1.43,1.43,0,0,1,1.42-1.42h70.08a1.42,1.42,0,0,1,1.41,1.42V151.9a1.42,1.42,0,0,1-1.4,1.42Z" transform="translate(-5.43 -1.85)"/><path class="cls-11" d="M327.64,74H295.1V55.13a1.5,1.5,0,0,1,1.5-1.5h29.53a1.51,1.51,0,0,1,1.51,1.5Zm-32.2-.33H327.3V55.13A1.17,1.17,0,0,0,326.13,54H296.6a1.16,1.16,0,0,0-1.16,1.17Z" transform="translate(-5.43 -1.85)"/><path class="cls-1" d="M304.36,60.8h14a1.34,1.34,0,0,1,1.33,1.34v20H303v-20a1.33,1.33,0,0,1,1.33-1.34Z" transform="translate(-5.43 -1.85)"/><path class="cls-11" d="M307.11,54h-6.84V47.12a.84.84,0,0,1,.84-.83h5.17a.83.83,0,0,1,.83.83Zm-6.5-.33h6.17V47.12a.5.5,0,0,0-.5-.5h-5.17a.5.5,0,0,0-.5.5Z" transform="translate(-5.43 -1.85)"/><path class="cls-11" d="M363.33,154.54h-.2A17,17,0,0,1,352,150.18l-.34-.32-.05-.05v-32l.34-.69c3.47-7,7.52-10.93,11.4-10.93,5.59,0,9.93,7.68,12,12.25,2.9,6.36,4.93,14.24,4.93,19.17a17,17,0,0,1-16.76,16.94Zm-11.42-4.87.28.26a16.6,16.6,0,0,0,10.94,4.27h.38a16.67,16.67,0,0,0,16.43-16.6c0-4.88-2-12.71-4.9-19-2.05-4.5-6.31-12-11.71-12-3.75,0-7.69,3.81-11.1,10.73l-.32.66Z" transform="translate(-5.43 -1.85)"/><path class="cls-2" d="M363.32,174.77a.2.2,0,0,1-.19-.19V135.39a.2.2,0,0,1,.19-.19.19.19,0,0,1,.2.19h0v39.19A.2.2,0,0,1,363.32,174.77Z" transform="translate(-5.43 -1.85)"/><path class="cls-2" d="M263.72,174.77a.19.19,0,0,1-.19-.19V135.39a.19.19,0,0,1,.19-.19.18.18,0,0,1,.19.19h0v39.19A.19.19,0,0,1,263.72,174.77Z" transform="translate(-5.43 -1.85)"/><path class="cls-2" d="M363.32,142.71a.2.2,0,0,1-.14-.06l-9.65-11.14a.18.18,0,0,1,0-.27.19.19,0,0,1,.27,0l9.65,11.14a.19.19,0,0,1,0,.27A.18.18,0,0,1,363.32,142.71Z" transform="translate(-5.43 -1.85)"/><path class="cls-2" d="M363.32,149.14a.19.19,0,0,1-.13-.33l5.48-5.49a.2.2,0,0,1,.28,0,.2.2,0,0,1,0,.27l-5.49,5.48A.18.18,0,0,1,363.32,149.14Z" transform="translate(-5.43 -1.85)"/><path class="cls-11" d="M381.08,174.85H366.73v-.17a7.18,7.18,0,1,1,14.35,0h0Zm-14-.34h13.68a6.84,6.84,0,0,0-13.68,0Z" transform="translate(-5.43 -1.85)"/><path class="cls-11" d="M373.91,170.61a.18.18,0,0,0-.19.19v2l-2-1.68a.19.19,0,0,0-.25.29h0l2.21,1.89v1.18a.18.18,0,0,0,.19.19.19.19,0,0,0,.19-.19h0V170.8A.19.19,0,0,0,373.91,170.61Z" transform="translate(-5.43 -1.85)"/><path class="cls-11" d="M260.79,174.85H246.44v-.17a7.18,7.18,0,0,1,14.35,0Zm-14-.34h13.68a6.84,6.84,0,0,0-13.68,0Z" transform="translate(-5.43 -1.85)"/><path class="cls-11" d="M253.62,170.61a.18.18,0,0,0-.19.19v2l-2-1.68a.19.19,0,0,0-.25.29h0l2.21,1.89v1.18a.18.18,0,0,0,.19.19.19.19,0,0,0,.19-.19h0V170.8A.19.19,0,0,0,253.62,170.61Z" transform="translate(-5.43 -1.85)"/><path class="cls-11" d="M263.89,154.54h-.2a17,17,0,0,1-16.76-16.94c0-4.93,2-12.81,4.94-19.17,2.08-4.57,6.42-12.25,12-12.25,2.3,0,4.62,1.32,6.9,3.91l.33.39,0,0V152.9l-.09,0-.34.15a16.78,16.78,0,0,1-6.65,1.44Zm0-48c-5.41,0-9.67,7.55-11.72,12-2.89,6.32-4.9,14.15-4.9,19a16.67,16.67,0,0,0,16.43,16.6h.38a16.24,16.24,0,0,0,6.51-1.4l.24-.11v-42l-.3-.34C268.33,107.79,266.09,106.52,263.89,106.52Z" transform="translate(-5.43 -1.85)"/><path class="cls-2" d="M263.89,142.71a.2.2,0,0,1-.15-.06l-9.65-11.14a.19.19,0,0,1,.29-.25L264,142.4a.19.19,0,0,1,0,.27A.17.17,0,0,1,263.89,142.71Z" transform="translate(-5.43 -1.85)"/><path class="cls-2" d="M263.89,149.14a.19.19,0,0,1-.19-.19.24.24,0,0,1,.05-.14l5.49-5.49a.19.19,0,0,1,.27,0,.2.2,0,0,1,0,.27L264,149.08A.16.16,0,0,1,263.89,149.14Z" transform="translate(-5.43 -1.85)"/><path class="cls-11" d="M279,75.32l.13.24a.81.81,0,0,1,.08.34v6.59H285V75.9a.81.81,0,0,1,.08-.34l.13-.24Zm5.71.58v6.26H279.5V75.9a1.07,1.07,0,0,0,0-.25h5.23a1.07,1.07,0,0,0,0,.25Zm1.63-.58.13.24a.81.81,0,0,1,.08.34v6.59h5.84V75.9a.81.81,0,0,1,.08-.34l.13-.24Zm5.72.58v6.26h-5.18V75.9a1.07,1.07,0,0,0,0-.25h5.24a1.07,1.07,0,0,0,0,.25Zm1.62-.58.13.24a.81.81,0,0,1,.08.34v6.59h5.84V75.9a.81.81,0,0,1,.08-.34l.13-.24Zm5.72.58v6.26h-5.18V75.9a1.07,1.07,0,0,0,0-.25h5.24a1.07,1.07,0,0,0,0,.25Zm1.62-.58.13.24a.81.81,0,0,1,.08.34v6.59H307V75.9a.81.81,0,0,1,.08-.34l.13-.24Zm5.72.58v6.26h-5.17V75.9a1.07,1.07,0,0,0,0-.25h5.23A1.07,1.07,0,0,0,306.7,75.9Zm1.63-.58.12.24a.81.81,0,0,1,.08.34v6.59h5.84V75.9a.69.69,0,0,1,.09-.34l.12-.24Zm5.71.58v6.26h-5.17V75.9a1.07,1.07,0,0,0,0-.25h5.23A1.07,1.07,0,0,0,314,75.9Zm1.63-.58.12.24a.68.68,0,0,1,.08.34v6.59h5.84V75.9a.69.69,0,0,1,.09-.34l.12-.24Zm5.71.58v6.26h-5.17V75.9a1.07,1.07,0,0,0,0-.25h5.23A1.07,1.07,0,0,0,321.38,75.9Zm1.63-.58.12.24a.68.68,0,0,1,.08.34v6.59h5.84V75.9a.69.69,0,0,1,.09-.34l.12-.24Zm5.71.58v6.26h-5.17V75.9a1.07,1.07,0,0,0,0-.25h5.23A1.07,1.07,0,0,0,328.72,75.9Zm1.63-.58.12.24a.69.69,0,0,1,.09.34v6.59h5.84V75.9a.68.68,0,0,1,.08-.34l.12-.24Zm5.71.58v6.26h-5.17V75.9a1.07,1.07,0,0,0,0-.25h5.23A1.07,1.07,0,0,0,336.06,75.9Zm1.63-.58.12.24a.69.69,0,0,1,.09.34v6.59h5.84V75.9a.81.81,0,0,1,.08-.34l.12-.24Zm5.71.58v6.26h-5.17V75.9a1.07,1.07,0,0,0,0-.25h5.23A1.07,1.07,0,0,0,343.4,75.9Zm-5.71-.58.12.24a.69.69,0,0,1,.09.34v6.59h5.84V75.9a.81.81,0,0,1,.08-.34l.12-.24Zm5.71.58v6.26h-5.17V75.9a1.07,1.07,0,0,0,0-.25h5.23A1.07,1.07,0,0,0,343.4,75.9Zm-13-.58.12.24a.69.69,0,0,1,.09.34v6.59h5.84V75.9a.68.68,0,0,1,.08-.34l.12-.24Zm5.71.58v6.26h-5.17V75.9a1.07,1.07,0,0,0,0-.25h5.23A1.07,1.07,0,0,0,336.06,75.9ZM323,75.32l.12.24a.68.68,0,0,1,.08.34v6.59h5.84V75.9a.69.69,0,0,1,.09-.34l.12-.24Zm5.71.58v6.26h-5.17V75.9a1.07,1.07,0,0,0,0-.25h5.23A1.07,1.07,0,0,0,328.72,75.9Zm-13.05-.58.12.24a.68.68,0,0,1,.08.34v6.59h5.84V75.9a.69.69,0,0,1,.09-.34l.12-.24Zm5.71.58v6.26h-5.17V75.9a1.07,1.07,0,0,0,0-.25h5.23A1.07,1.07,0,0,0,321.38,75.9Zm-13.05-.58.12.24a.81.81,0,0,1,.08.34v6.59h5.84V75.9a.69.69,0,0,1,.09-.34l.12-.24Zm5.71.58v6.26h-5.17V75.9a1.07,1.07,0,0,0,0-.25h5.23A1.07,1.07,0,0,0,314,75.9ZM301,75.32l.13.24a.81.81,0,0,1,.08.34v6.59H307V75.9a.81.81,0,0,1,.08-.34l.13-.24Zm5.72.58v6.26h-5.17V75.9a1.07,1.07,0,0,0,0-.25h5.23A1.07,1.07,0,0,0,306.7,75.9Zm-13.06-.58.13.24a.81.81,0,0,1,.08.34v6.59h5.84V75.9a.81.81,0,0,1,.08-.34l.13-.24Zm5.72.58v6.26h-5.18V75.9a1.07,1.07,0,0,0,0-.25h5.24a1.07,1.07,0,0,0,0,.25Zm-13.06-.58.13.24a.81.81,0,0,1,.08.34v6.59h5.84V75.9a.81.81,0,0,1,.08-.34l.13-.24Zm5.72.58v6.26h-5.18V75.9a1.07,1.07,0,0,0,0-.25h5.24a1.07,1.07,0,0,0,0,.25ZM279,75.32l.13.24a.81.81,0,0,1,.08.34v6.59H285V75.9a.81.81,0,0,1,.08-.34l.13-.24Zm5.71.58v6.26H279.5V75.9a1.07,1.07,0,0,0,0-.25h5.23a1.07,1.07,0,0,0,0,.25Zm53-.58.12.24a.69.69,0,0,1,.09.34v6.59h5.84V75.9a.81.81,0,0,1,.08-.34l.12-.24Zm5.71.58v6.26h-5.17V75.9a1.07,1.07,0,0,0,0-.25h5.23A1.07,1.07,0,0,0,343.4,75.9Zm-13-.58.12.24a.69.69,0,0,1,.09.34v6.59h5.84V75.9a.68.68,0,0,1,.08-.34l.12-.24Zm5.71.58v6.26h-5.17V75.9a1.07,1.07,0,0,0,0-.25h5.23A1.07,1.07,0,0,0,336.06,75.9ZM323,75.32l.12.24a.68.68,0,0,1,.08.34v6.59h5.84V75.9a.69.69,0,0,1,.09-.34l.12-.24Zm5.71.58v6.26h-5.17V75.9a1.07,1.07,0,0,0,0-.25h5.23A1.07,1.07,0,0,0,328.72,75.9Zm-13.05-.58.12.24a.68.68,0,0,1,.08.34v6.59h5.84V75.9a.69.69,0,0,1,.09-.34l.12-.24Zm5.71.58v6.26h-5.17V75.9a1.07,1.07,0,0,0,0-.25h5.23A1.07,1.07,0,0,0,321.38,75.9Zm-13.05-.58.12.24a.81.81,0,0,1,.08.34v6.59h5.84V75.9a.69.69,0,0,1,.09-.34l.12-.24Zm5.71.58v6.26h-5.17V75.9a1.07,1.07,0,0,0,0-.25h5.23A1.07,1.07,0,0,0,314,75.9ZM301,75.32l.13.24a.81.81,0,0,1,.08.34v6.59H307V75.9a.81.81,0,0,1,.08-.34l.13-.24Zm5.72.58v6.26h-5.17V75.9a1.07,1.07,0,0,0,0-.25h5.23A1.07,1.07,0,0,0,306.7,75.9Zm-13.06-.58.13.24a.81.81,0,0,1,.08.34v6.59h5.84V75.9a.81.81,0,0,1,.08-.34l.13-.24Zm5.72.58v6.26h-5.18V75.9a1.07,1.07,0,0,0,0-.25h5.24a1.07,1.07,0,0,0,0,.25Zm-13.06-.58.13.24a.81.81,0,0,1,.08.34v6.59h5.84V75.9a.81.81,0,0,1,.08-.34l.13-.24Zm5.72.58v6.26h-5.18V75.9a1.07,1.07,0,0,0,0-.25h5.24a1.07,1.07,0,0,0,0,.25ZM279,75.32l.13.24a.81.81,0,0,1,.08.34v6.59H285V75.9a.81.81,0,0,1,.08-.34l.13-.24Zm5.71.58v6.26H279.5V75.9a1.07,1.07,0,0,0,0-.25h5.23a1.07,1.07,0,0,0,0,.25Zm53-.58.12.24a.69.69,0,0,1,.09.34v6.59h5.84V75.9a.81.81,0,0,1,.08-.34l.12-.24Zm5.71.58v6.26h-5.17V75.9a1.07,1.07,0,0,0,0-.25h5.23A1.07,1.07,0,0,0,343.4,75.9Zm-13-.58.12.24a.69.69,0,0,1,.09.34v6.59h5.84V75.9a.68.68,0,0,1,.08-.34l.12-.24Zm5.71.58v6.26h-5.17V75.9a1.07,1.07,0,0,0,0-.25h5.23A1.07,1.07,0,0,0,336.06,75.9ZM323,75.32l.12.24a.68.68,0,0,1,.08.34v6.59h5.84V75.9a.69.69,0,0,1,.09-.34l.12-.24Zm5.71.58v6.26h-5.17V75.9a1.07,1.07,0,0,0,0-.25h5.23A1.07,1.07,0,0,0,328.72,75.9Zm-13.05-.58.12.24a.68.68,0,0,1,.08.34v6.59h5.84V75.9a.69.69,0,0,1,.09-.34l.12-.24Zm5.71.58v6.26h-5.17V75.9a1.07,1.07,0,0,0,0-.25h5.23A1.07,1.07,0,0,0,321.38,75.9Zm-13.05-.58.12.24a.81.81,0,0,1,.08.34v6.59h5.84V75.9a.69.69,0,0,1,.09-.34l.12-.24Zm5.71.58v6.26h-5.17V75.9a1.07,1.07,0,0,0,0-.25h5.23A1.07,1.07,0,0,0,314,75.9ZM301,75.32l.13.24a.81.81,0,0,1,.08.34v6.59H307V75.9a.81.81,0,0,1,.08-.34l.13-.24Zm5.72.58v6.26h-5.17V75.9a1.07,1.07,0,0,0,0-.25h5.23A1.07,1.07,0,0,0,306.7,75.9Zm-13.06-.58.13.24a.81.81,0,0,1,.08.34v6.59h5.84V75.9a.81.81,0,0,1,.08-.34l.13-.24Zm5.72.58v6.26h-5.18V75.9a1.07,1.07,0,0,0,0-.25h5.24a1.07,1.07,0,0,0,0,.25Zm-13.06-.58.13.24a.81.81,0,0,1,.08.34v6.59h5.84V75.9a.81.81,0,0,1,.08-.34l.13-.24Zm5.72.58v6.26h-5.18V75.9a1.07,1.07,0,0,0,0-.25h5.24a1.07,1.07,0,0,0,0,.25ZM279,75.32l.13.24a.81.81,0,0,1,.08.34v6.59H285V75.9a.81.81,0,0,1,.08-.34l.13-.24Zm5.71.58v6.26H279.5V75.9a1.07,1.07,0,0,0,0-.25h5.23a1.07,1.07,0,0,0,0,.25Zm53-.58.12.24a.69.69,0,0,1,.09.34v6.59h5.84V75.9a.81.81,0,0,1,.08-.34l.12-.24Zm5.71.58v6.26h-5.17V75.9a1.07,1.07,0,0,0,0-.25h5.23A1.07,1.07,0,0,0,343.4,75.9Zm-13-.58.12.24a.69.69,0,0,1,.09.34v6.59h5.84V75.9a.68.68,0,0,1,.08-.34l.12-.24Zm5.71.58v6.26h-5.17V75.9a1.07,1.07,0,0,0,0-.25h5.23A1.07,1.07,0,0,0,336.06,75.9ZM323,75.32l.12.24a.68.68,0,0,1,.08.34v6.59h5.84V75.9a.69.69,0,0,1,.09-.34l.12-.24Zm5.71.58v6.26h-5.17V75.9a1.07,1.07,0,0,0,0-.25h5.23A1.07,1.07,0,0,0,328.72,75.9Zm-13.05-.58.12.24a.68.68,0,0,1,.08.34v6.59h5.84V75.9a.69.69,0,0,1,.09-.34l.12-.24Zm5.71.58v6.26h-5.17V75.9a1.07,1.07,0,0,0,0-.25h5.23A1.07,1.07,0,0,0,321.38,75.9Zm-13.05-.58.12.24a.81.81,0,0,1,.08.34v6.59h5.84V75.9a.69.69,0,0,1,.09-.34l.12-.24Zm5.71.58v6.26h-5.17V75.9a1.07,1.07,0,0,0,0-.25h5.23A1.07,1.07,0,0,0,314,75.9ZM301,75.32l.13.24a.81.81,0,0,1,.08.34v6.59H307V75.9a.81.81,0,0,1,.08-.34l.13-.24Zm5.72.58v6.26h-5.17V75.9a1.07,1.07,0,0,0,0-.25h5.23A1.07,1.07,0,0,0,306.7,75.9Zm-13.06-.58.13.24a.81.81,0,0,1,.08.34v6.59h5.84V75.9a.81.81,0,0,1,.08-.34l.13-.24Zm5.72.58v6.26h-5.18V75.9a1.07,1.07,0,0,0,0-.25h5.24a1.07,1.07,0,0,0,0,.25Zm-13.06-.58.13.24a.81.81,0,0,1,.08.34v6.59h5.84V75.9a.81.81,0,0,1,.08-.34l.13-.24Zm5.72.58v6.26h-5.18V75.9a1.07,1.07,0,0,0,0-.25h5.24a1.07,1.07,0,0,0,0,.25ZM279,75.32l.13.24a.81.81,0,0,1,.08.34v6.59H285V75.9a.81.81,0,0,1,.08-.34l.13-.24Zm5.71.58v6.26H279.5V75.9a1.07,1.07,0,0,0,0-.25h5.23a1.07,1.07,0,0,0,0,.25Zm53-.58.12.24a.69.69,0,0,1,.09.34v6.59h5.84V75.9a.81.81,0,0,1,.08-.34l.12-.24Zm5.71.58v6.26h-5.17V75.9a1.07,1.07,0,0,0,0-.25h5.23A1.07,1.07,0,0,0,343.4,75.9Zm-12.93-.34a.69.69,0,0,1,.09.34v6.59h5.84V75.9a.68.68,0,0,1,.08-.34l.12-.24h-6.25Zm5.62.09a1.07,1.07,0,0,0,0,.25v6.26h-5.17V75.9a1.07,1.07,0,0,0,0-.25Zm-13-.09a.68.68,0,0,1,.08.34v6.59h5.84V75.9a.69.69,0,0,1,.09-.34l.12-.24H323Zm5.62.09a1.07,1.07,0,0,0,0,.25v6.26h-5.17V75.9a1.07,1.07,0,0,0,0-.25Zm-13-.09a.68.68,0,0,1,.08.34v6.59h5.84V75.9a.69.69,0,0,1,.09-.34l.12-.24h-6.25Zm5.62.09a1.07,1.07,0,0,0,0,.25v6.26h-5.17V75.9a1.07,1.07,0,0,0,0-.25Zm-13-.09a.81.81,0,0,1,.08.34v6.59h5.84V75.9a.69.69,0,0,1,.09-.34l.12-.24h-6.25Zm5.62.09a1.07,1.07,0,0,0,0,.25v6.26h-5.17V75.9a1.07,1.07,0,0,0,0-.25Zm-13-.09a.81.81,0,0,1,.08.34v6.59H307V75.9a.81.81,0,0,1,.08-.34l.13-.24H301Zm5.62.09a1.07,1.07,0,0,0,0,.25v6.26h-5.17V75.9a1.07,1.07,0,0,0,0-.25Zm-13-.09a.81.81,0,0,1,.08.34v6.59h5.84V75.9a.81.81,0,0,1,.08-.34l.13-.24h-6.26Zm5.62.09a1.07,1.07,0,0,0,0,.25v6.26h-5.18V75.9a1.07,1.07,0,0,0,0-.25Zm-13-.09a.81.81,0,0,1,.08.34v6.59h5.84V75.9a.81.81,0,0,1,.08-.34l.13-.24H286.3Zm5.62.09a1.07,1.07,0,0,0,0,.25v6.26h-5.18V75.9a1.07,1.07,0,0,0,0-.25Zm-13-.09a.81.81,0,0,1,.08.34v6.59H285V75.9a.81.81,0,0,1,.08-.34l.13-.24H279Zm5.61.09a1.07,1.07,0,0,0,0,.25v6.26H279.5V75.9a1.07,1.07,0,0,0,0-.25Zm53.11-.09a.69.69,0,0,1,.09.34v6.59h5.84V75.9a.81.81,0,0,1,.08-.34l.12-.24h-6.25Zm5.62.09a1.07,1.07,0,0,0,0,.25v6.26h-5.17V75.9a1.07,1.07,0,0,0,0-.25Zm-13-.09a.69.69,0,0,1,.09.34v6.59h5.84V75.9a.68.68,0,0,1,.08-.34l.12-.24h-6.25Zm5.62.09a1.07,1.07,0,0,0,0,.25v6.26h-5.17V75.9a1.07,1.07,0,0,0,0-.25Zm-13-.09a.68.68,0,0,1,.08.34v6.59h5.84V75.9a.69.69,0,0,1,.09-.34l.12-.24H323Zm5.62.09a1.07,1.07,0,0,0,0,.25v6.26h-5.17V75.9a1.07,1.07,0,0,0,0-.25Zm-13-.09a.68.68,0,0,1,.08.34v6.59h5.84V75.9a.69.69,0,0,1,.09-.34l.12-.24h-6.25Zm5.62.09a1.07,1.07,0,0,0,0,.25v6.26h-5.17V75.9a1.07,1.07,0,0,0,0-.25Zm-13-.09a.81.81,0,0,1,.08.34v6.59h5.84V75.9a.69.69,0,0,1,.09-.34l.12-.24h-6.25Zm5.62.09a1.07,1.07,0,0,0,0,.25v6.26h-5.17V75.9a1.07,1.07,0,0,0,0-.25Zm-13-.09a.81.81,0,0,1,.08.34v6.59H307V75.9a.81.81,0,0,1,.08-.34l.13-.24H301Zm5.62.09a1.07,1.07,0,0,0,0,.25v6.26h-5.17V75.9a1.07,1.07,0,0,0,0-.25Zm-13-.09a.81.81,0,0,1,.08.34v6.59h5.84V75.9a.81.81,0,0,1,.08-.34l.13-.24h-6.26Zm5.62.09a1.07,1.07,0,0,0,0,.25v6.26h-5.18V75.9a1.07,1.07,0,0,0,0-.25Zm-13-.09a.81.81,0,0,1,.08.34v6.59h5.84V75.9a.81.81,0,0,1,.08-.34l.13-.24H286.3Zm5.62.09a1.07,1.07,0,0,0,0,.25v6.26h-5.18V75.9a1.07,1.07,0,0,0,0-.25Zm-13-.09a.81.81,0,0,1,.08.34v6.59H285V75.9a.81.81,0,0,1,.08-.34l.13-.24H279Zm5.61.09a1.07,1.07,0,0,0,0,.25v6.26H279.5V75.9a1.07,1.07,0,0,0,0-.25Zm65.71,7.84h-2a1.82,1.82,0,0,0-1.76-1.33h-1.09V75.9a1,1,0,0,0-.07-.39,1,1,0,0,0-.51-1.86H277.92a1,1,0,0,0-.51,1.86,1,1,0,0,0-.08.39v6.26h-1.08a1.84,1.84,0,0,0-1.77,1.33h-2.15a1.5,1.5,0,0,0-1.5,1.5v88.1a1.5,1.5,0,0,0,1.5,1.5h78.08a1.5,1.5,0,0,0,1.5-1.5V85A1.5,1.5,0,0,0,350.41,83.49Zm1.17,89.6a1.18,1.18,0,0,1-.76,1.09,1.14,1.14,0,0,1-.41.07H272.33a1.14,1.14,0,0,1-.41-.07,1.18,1.18,0,0,1-.76-1.09V85a1.16,1.16,0,0,1,1.17-1.16h2.42l0-.14a1.5,1.5,0,0,1,1.47-1.2h1.42V75.9a.72.72,0,0,1,.1-.38l.11-.18-.19-.07a.65.65,0,0,1-.4-.85.68.68,0,0,1,.63-.44H345a.68.68,0,0,1,.67.67.66.66,0,0,1-.44.62l-.19.07.1.18a.73.73,0,0,1,.11.38v6.59h1.42a1.51,1.51,0,0,1,1.47,1.2l0,.14h2.26A1.17,1.17,0,0,1,351.58,85ZM279,75.32l.13.24a.81.81,0,0,1,.08.34v6.59H285V75.9a.81.81,0,0,1,.08-.34l.13-.24Zm5.71.58v6.26H279.5V75.9a1.07,1.07,0,0,0,0-.25h5.23a1.07,1.07,0,0,0,0,.25Zm1.63-.58.13.24a.81.81,0,0,1,.08.34v6.59h5.84V75.9a.81.81,0,0,1,.08-.34l.13-.24Zm5.72.58v6.26h-5.18V75.9a1.07,1.07,0,0,0,0-.25h5.24a1.07,1.07,0,0,0,0,.25Zm1.62-.58.13.24a.81.81,0,0,1,.08.34v6.59h5.84V75.9a.81.81,0,0,1,.08-.34l.13-.24Zm5.72.58v6.26h-5.18V75.9a1.07,1.07,0,0,0,0-.25h5.24a1.07,1.07,0,0,0,0,.25Zm1.62-.58.13.24a.81.81,0,0,1,.08.34v6.59H307V75.9a.81.81,0,0,1,.08-.34l.13-.24Zm5.72.58v6.26h-5.17V75.9a1.07,1.07,0,0,0,0-.25h5.23A1.07,1.07,0,0,0,306.7,75.9Zm1.63-.58.12.24a.81.81,0,0,1,.08.34v6.59h5.84V75.9a.69.69,0,0,1,.09-.34l.12-.24Zm5.71.58v6.26h-5.17V75.9a1.07,1.07,0,0,0,0-.25h5.23A1.07,1.07,0,0,0,314,75.9Zm1.63-.58.12.24a.68.68,0,0,1,.08.34v6.59h5.84V75.9a.69.69,0,0,1,.09-.34l.12-.24Zm5.71.58v6.26h-5.17V75.9a1.07,1.07,0,0,0,0-.25h5.23A1.07,1.07,0,0,0,321.38,75.9Zm1.63-.58.12.24a.68.68,0,0,1,.08.34v6.59h5.84V75.9a.69.69,0,0,1,.09-.34l.12-.24Zm5.71.58v6.26h-5.17V75.9a1.07,1.07,0,0,0,0-.25h5.23A1.07,1.07,0,0,0,328.72,75.9Zm1.63-.58.12.24a.69.69,0,0,1,.09.34v6.59h5.84V75.9a.68.68,0,0,1,.08-.34l.12-.24Zm5.71.58v6.26h-5.17V75.9a1.07,1.07,0,0,0,0-.25h5.23A1.07,1.07,0,0,0,336.06,75.9Zm1.63-.58.12.24a.69.69,0,0,1,.09.34v6.59h5.84V75.9a.81.81,0,0,1,.08-.34l.12-.24Zm5.71.58v6.26h-5.17V75.9a1.07,1.07,0,0,0,0-.25h5.23A1.07,1.07,0,0,0,343.4,75.9ZM279,75.32l.13.24a.81.81,0,0,1,.08.34v6.59H285V75.9a.81.81,0,0,1,.08-.34l.13-.24Zm5.71.58v6.26H279.5V75.9a1.07,1.07,0,0,0,0-.25h5.23a1.07,1.07,0,0,0,0,.25Zm1.63-.58.13.24a.81.81,0,0,1,.08.34v6.59h5.84V75.9a.81.81,0,0,1,.08-.34l.13-.24Zm5.72.58v6.26h-5.18V75.9a1.07,1.07,0,0,0,0-.25h5.24a1.07,1.07,0,0,0,0,.25Zm1.62-.58.13.24a.81.81,0,0,1,.08.34v6.59h5.84V75.9a.81.81,0,0,1,.08-.34l.13-.24Zm5.72.58v6.26h-5.18V75.9a1.07,1.07,0,0,0,0-.25h5.24a1.07,1.07,0,0,0,0,.25Zm1.62-.58.13.24a.81.81,0,0,1,.08.34v6.59H307V75.9a.81.81,0,0,1,.08-.34l.13-.24Zm5.72.58v6.26h-5.17V75.9a1.07,1.07,0,0,0,0-.25h5.23A1.07,1.07,0,0,0,306.7,75.9Zm1.63-.58.12.24a.81.81,0,0,1,.08.34v6.59h5.84V75.9a.69.69,0,0,1,.09-.34l.12-.24Zm5.71.58v6.26h-5.17V75.9a1.07,1.07,0,0,0,0-.25h5.23A1.07,1.07,0,0,0,314,75.9Zm1.63-.58.12.24a.68.68,0,0,1,.08.34v6.59h5.84V75.9a.69.69,0,0,1,.09-.34l.12-.24Zm5.71.58v6.26h-5.17V75.9a1.07,1.07,0,0,0,0-.25h5.23A1.07,1.07,0,0,0,321.38,75.9Zm1.63-.58.12.24a.68.68,0,0,1,.08.34v6.59h5.84V75.9a.69.69,0,0,1,.09-.34l.12-.24Zm5.71.58v6.26h-5.17V75.9a1.07,1.07,0,0,0,0-.25h5.23A1.07,1.07,0,0,0,328.72,75.9Zm1.63-.58.12.24a.69.69,0,0,1,.09.34v6.59h5.84V75.9a.68.68,0,0,1,.08-.34l.12-.24Zm5.71.58v6.26h-5.17V75.9a1.07,1.07,0,0,0,0-.25h5.23A1.07,1.07,0,0,0,336.06,75.9Zm1.63-.58.12.24a.69.69,0,0,1,.09.34v6.59h5.84V75.9a.81.81,0,0,1,.08-.34l.12-.24Zm5.71.58v6.26h-5.17V75.9a1.07,1.07,0,0,0,0-.25h5.23A1.07,1.07,0,0,0,343.4,75.9ZM279,75.32l.13.24a.81.81,0,0,1,.08.34v6.59H285V75.9a.81.81,0,0,1,.08-.34l.13-.24Zm5.71.58v6.26H279.5V75.9a1.07,1.07,0,0,0,0-.25h5.23a1.07,1.07,0,0,0,0,.25Zm1.63-.58.13.24a.81.81,0,0,1,.08.34v6.59h5.84V75.9a.81.81,0,0,1,.08-.34l.13-.24Zm5.72.58v6.26h-5.18V75.9a1.07,1.07,0,0,0,0-.25h5.24a1.07,1.07,0,0,0,0,.25Zm1.62-.58.13.24a.81.81,0,0,1,.08.34v6.59h5.84V75.9a.81.81,0,0,1,.08-.34l.13-.24Zm5.72.58v6.26h-5.18V75.9a1.07,1.07,0,0,0,0-.25h5.24a1.07,1.07,0,0,0,0,.25Zm1.62-.58.13.24a.81.81,0,0,1,.08.34v6.59H307V75.9a.81.81,0,0,1,.08-.34l.13-.24Zm5.72.58v6.26h-5.17V75.9a1.07,1.07,0,0,0,0-.25h5.23A1.07,1.07,0,0,0,306.7,75.9Zm1.63-.58.12.24a.81.81,0,0,1,.08.34v6.59h5.84V75.9a.69.69,0,0,1,.09-.34l.12-.24Zm5.71.58v6.26h-5.17V75.9a1.07,1.07,0,0,0,0-.25h5.23A1.07,1.07,0,0,0,314,75.9Zm1.63-.58.12.24a.68.68,0,0,1,.08.34v6.59h5.84V75.9a.69.69,0,0,1,.09-.34l.12-.24Zm5.71.58v6.26h-5.17V75.9a1.07,1.07,0,0,0,0-.25h5.23A1.07,1.07,0,0,0,321.38,75.9Zm1.63-.58.12.24a.68.68,0,0,1,.08.34v6.59h5.84V75.9a.69.69,0,0,1,.09-.34l.12-.24Zm5.71.58v6.26h-5.17V75.9a1.07,1.07,0,0,0,0-.25h5.23A1.07,1.07,0,0,0,328.72,75.9Zm1.63-.58.12.24a.69.69,0,0,1,.09.34v6.59h5.84V75.9a.68.68,0,0,1,.08-.34l.12-.24Zm5.71.58v6.26h-5.17V75.9a1.07,1.07,0,0,0,0-.25h5.23A1.07,1.07,0,0,0,336.06,75.9Zm1.63-.58.12.24a.69.69,0,0,1,.09.34v6.59h5.84V75.9a.81.81,0,0,1,.08-.34l.12-.24Zm5.71.58v6.26h-5.17V75.9a1.07,1.07,0,0,0,0-.25h5.23A1.07,1.07,0,0,0,343.4,75.9ZM279,75.32l.13.24a.81.81,0,0,1,.08.34v6.59H285V75.9a.81.81,0,0,1,.08-.34l.13-.24Zm5.71.58v6.26H279.5V75.9a1.07,1.07,0,0,0,0-.25h5.23a1.07,1.07,0,0,0,0,.25Zm1.63-.58.13.24a.81.81,0,0,1,.08.34v6.59h5.84V75.9a.81.81,0,0,1,.08-.34l.13-.24Zm5.72.58v6.26h-5.18V75.9a1.07,1.07,0,0,0,0-.25h5.24a1.07,1.07,0,0,0,0,.25Zm1.62-.58.13.24a.81.81,0,0,1,.08.34v6.59h5.84V75.9a.81.81,0,0,1,.08-.34l.13-.24Zm5.72.58v6.26h-5.18V75.9a1.07,1.07,0,0,0,0-.25h5.24a1.07,1.07,0,0,0,0,.25Zm1.62-.58.13.24a.81.81,0,0,1,.08.34v6.59H307V75.9a.81.81,0,0,1,.08-.34l.13-.24Zm5.72.58v6.26h-5.17V75.9a1.07,1.07,0,0,0,0-.25h5.23A1.07,1.07,0,0,0,306.7,75.9Zm1.63-.58.12.24a.81.81,0,0,1,.08.34v6.59h5.84V75.9a.69.69,0,0,1,.09-.34l.12-.24Zm5.71.58v6.26h-5.17V75.9a1.07,1.07,0,0,0,0-.25h5.23A1.07,1.07,0,0,0,314,75.9Zm1.63-.58.12.24a.68.68,0,0,1,.08.34v6.59h5.84V75.9a.69.69,0,0,1,.09-.34l.12-.24Zm5.71.58v6.26h-5.17V75.9a1.07,1.07,0,0,0,0-.25h5.23A1.07,1.07,0,0,0,321.38,75.9Zm1.63-.58.12.24a.68.68,0,0,1,.08.34v6.59h5.84V75.9a.69.69,0,0,1,.09-.34l.12-.24Zm5.71.58v6.26h-5.17V75.9a1.07,1.07,0,0,0,0-.25h5.23A1.07,1.07,0,0,0,328.72,75.9Zm1.63-.58.12.24a.69.69,0,0,1,.09.34v6.59h5.84V75.9a.68.68,0,0,1,.08-.34l.12-.24Zm5.71.58v6.26h-5.17V75.9a1.07,1.07,0,0,0,0-.25h5.23A1.07,1.07,0,0,0,336.06,75.9Zm1.63-.58.12.24a.69.69,0,0,1,.09.34v6.59h5.84V75.9a.81.81,0,0,1,.08-.34l.12-.24Zm5.71.58v6.26h-5.17V75.9a1.07,1.07,0,0,0,0-.25h5.23A1.07,1.07,0,0,0,343.4,75.9Z" transform="translate(-5.43 -1.85)"/><path class="cls-9" d="M298.8,104.51H286.49a1,1,0,0,1-1-1V97a1,1,0,0,1,1-1H298.8a1,1,0,0,1,1,1v6.56A1,1,0,0,1,298.8,104.51Z" transform="translate(-5.43 -1.85)"/><path class="cls-9" d="M317.52,104.51h-12.3a1,1,0,0,1-1-1V97a1,1,0,0,1,1-1h12.3a1,1,0,0,1,1,1v6.56A1,1,0,0,1,317.52,104.51Z" transform="translate(-5.43 -1.85)"/><path class="cls-9" d="M336.24,104.51h-12.3a1,1,0,0,1-1-1V97a1,1,0,0,1,1-1h12.3a1,1,0,0,1,1,1v6.56A1,1,0,0,1,336.24,104.51Z" transform="translate(-5.43 -1.85)"/><path class="cls-9" d="M298.8,126.37H286.49a1,1,0,0,1-1-1v-6.55a1,1,0,0,1,1-1H298.8a1,1,0,0,1,1,1v6.55A1,1,0,0,1,298.8,126.37Z" transform="translate(-5.43 -1.85)"/><path class="cls-9" d="M317.52,126.37h-12.3a1,1,0,0,1-1-1v-6.55a1,1,0,0,1,1-1h12.3a1,1,0,0,1,1,1v6.55A1,1,0,0,1,317.52,126.37Z" transform="translate(-5.43 -1.85)"/><path class="cls-9" d="M336.24,126.37h-12.3a1,1,0,0,1-1-1v-6.55a1,1,0,0,1,1-1h12.3a1,1,0,0,1,1,1v6.55A1,1,0,0,1,336.24,126.37Z" transform="translate(-5.43 -1.85)"/><path class="cls-9" d="M298.8,148.23H286.49a1,1,0,0,1-1-1V140.7a1,1,0,0,1,1-1H298.8a1,1,0,0,1,1,1v6.55A1,1,0,0,1,298.8,148.23Z" transform="translate(-5.43 -1.85)"/><path class="cls-9" d="M317.52,148.23h-12.3a1,1,0,0,1-1-1V140.7a1,1,0,0,1,1-1h12.3a1,1,0,0,1,1,1v6.55A1,1,0,0,1,317.52,148.23Z" transform="translate(-5.43 -1.85)"/><path class="cls-9" d="M336.24,148.23h-12.3a1,1,0,0,1-1-1V140.7a1,1,0,0,1,1-1h12.3a1,1,0,0,1,1,1v6.55A1,1,0,0,1,336.24,148.23Z" transform="translate(-5.43 -1.85)"/><path class="cls-11" d="M296.81,105.36H282.55a1.32,1.32,0,0,1-1.3-1.3v-7.6a1.32,1.32,0,0,1,1.3-1.3h14.26a1.32,1.32,0,0,1,1.3,1.3v7.6A1.32,1.32,0,0,1,296.81,105.36ZM282.55,95.5a1,1,0,0,0-1,1v7.6a1,1,0,0,0,1,1h14.26a1,1,0,0,0,1-1v-7.6a1,1,0,0,0-1-1Z" transform="translate(-5.43 -1.85)"/><path class="cls-11" d="M318.5,105.36H304.24a1.32,1.32,0,0,1-1.3-1.3v-7.6a1.32,1.32,0,0,1,1.3-1.3H318.5a1.31,1.31,0,0,1,1.29,1.3v7.6A1.31,1.31,0,0,1,318.5,105.36ZM304.24,95.5a1,1,0,0,0-1,1v7.6a1,1,0,0,0,1,1H318.5a1,1,0,0,0,1-1v-7.6a1,1,0,0,0-1-1Z" transform="translate(-5.43 -1.85)"/><path class="cls-11" d="M340.18,105.36H325.93a1.32,1.32,0,0,1-1.3-1.3v-7.6a1.32,1.32,0,0,1,1.3-1.3h14.25a1.31,1.31,0,0,1,1.3,1.3v7.6A1.31,1.31,0,0,1,340.18,105.36ZM325.93,95.5a1,1,0,0,0-1,1v7.6a1,1,0,0,0,1,1h14.25a1,1,0,0,0,1-1v-7.6a1,1,0,0,0-1-1Z" transform="translate(-5.43 -1.85)"/><path class="cls-11" d="M296.81,127.21H282.55a1.31,1.31,0,0,1-1.3-1.3v-7.59a1.31,1.31,0,0,1,1.3-1.3h14.26a1.31,1.31,0,0,1,1.3,1.3v7.59A1.31,1.31,0,0,1,296.81,127.21Zm-14.26-9.86a1,1,0,0,0-1,1v7.59a1,1,0,0,0,1,1h14.26a1,1,0,0,0,1-1v-7.59a1,1,0,0,0-1-1Z" transform="translate(-5.43 -1.85)"/><path class="cls-11" d="M318.5,127.21H304.24a1.3,1.3,0,0,1-1.3-1.3v-7.59a1.3,1.3,0,0,1,1.3-1.3H318.5a1.3,1.3,0,0,1,1.29,1.3v7.59A1.3,1.3,0,0,1,318.5,127.21Zm-14.26-9.86a1,1,0,0,0-1,1v7.59a1,1,0,0,0,1,1H318.5a1,1,0,0,0,1-1v-7.59a1,1,0,0,0-1-1Z" transform="translate(-5.43 -1.85)"/><path class="cls-11" d="M340.18,127.21H325.93a1.3,1.3,0,0,1-1.3-1.3v-7.59a1.3,1.3,0,0,1,1.3-1.3h14.25a1.3,1.3,0,0,1,1.3,1.3v7.59A1.3,1.3,0,0,1,340.18,127.21Zm-14.25-9.86a1,1,0,0,0-1,1v7.59a1,1,0,0,0,1,1h14.25a1,1,0,0,0,1-1v-7.59a1,1,0,0,0-1-1Z" transform="translate(-5.43 -1.85)"/><path class="cls-11" d="M296.81,149.07H282.55a1.31,1.31,0,0,1-1.3-1.3v-7.59a1.31,1.31,0,0,1,1.3-1.3h14.26a1.31,1.31,0,0,1,1.3,1.3v7.59A1.31,1.31,0,0,1,296.81,149.07Zm-14.26-9.86a1,1,0,0,0-1,1v7.59a1,1,0,0,0,1,1h14.26a1,1,0,0,0,1-1v-7.59a1,1,0,0,0-1-1Z" transform="translate(-5.43 -1.85)"/><path class="cls-11" d="M318.5,149.07H304.24a1.3,1.3,0,0,1-1.3-1.3v-7.59a1.3,1.3,0,0,1,1.3-1.3H318.5a1.3,1.3,0,0,1,1.29,1.3v7.59A1.3,1.3,0,0,1,318.5,149.07Zm-14.26-9.86a1,1,0,0,0-1,1v7.59a1,1,0,0,0,1,1H318.5a1,1,0,0,0,1-1v-7.59a1,1,0,0,0-1-1Z" transform="translate(-5.43 -1.85)"/><path class="cls-11" d="M340.18,149.07H325.93a1.3,1.3,0,0,1-1.3-1.3v-7.59a1.3,1.3,0,0,1,1.3-1.3h14.25a1.3,1.3,0,0,1,1.3,1.3v7.59A1.3,1.3,0,0,1,340.18,149.07Zm-14.25-9.86a1,1,0,0,0-1,1v7.59a1,1,0,0,0,1,1h14.25a1,1,0,0,0,1-1v-7.59a1,1,0,0,0-1-1Z" transform="translate(-5.43 -1.85)"/><path class="cls-11" d="M398.25,174.84H230.07a.17.17,0,0,1,0-.34H398.25a.17.17,0,0,1,0,.34Z" transform="translate(-5.43 -1.85)"/><path class="cls-11" d="M319.79,158.69a1.43,1.43,0,0,0-1.41-1.45h-7V174.5h8.42Z" transform="translate(-5.43 -1.85)"/><path class="cls-11" d="M311.54,174.34h-8.76v-15.6a1.59,1.59,0,0,1,1.58-1.59h7.18Zm-8.43-.34h8.09V157.49h-6.84a1.25,1.25,0,0,0-1.25,1.25Z" transform="translate(-5.43 -1.85)"/><circle class="cls-11" cx="298.43" cy="164.56" r="0.5"/></svg>