<?xml version="1.0" encoding="utf-8"?>
<!-- Generator: Adobe Illustrator 25.1.0, SVG Export Plug-In . SVG Version: 6.00 Build 0)  -->
<svg version="1.1" id="Layer_1" xmlns="http://www.w3.org/2000/svg" xmlns:xlink="http://www.w3.org/1999/xlink" x="0px" y="0px"
	 viewBox="0 0 1366 768" style="enable-background:new 0 0 1366 768;" xml:space="preserve">
<style type="text/css">
	.st0{opacity:0.3;fill:#F4DB7D;enable-background:new    ;}
	.st1{fill:#1A2238;}
	.st2{fill:#E6E6E6;}
	.st3{fill:#CCCCCC;}
	.st4{fill:#FFFFFF;}
	.st5{fill:#E5E5E5;}
	.st6{fill:#FF6A3D;}
	.st7{fill:#FFB7B7;}
	.st8{fill:#2F2E41;}
	.st9{fill:#F4DB7D;}
	.st10{fill:#FFB8B8;}
	.st11{fill:#3F3D56;}
	.st12{fill:#9E2500;}
	.st13{fill:#FFB6B6;}
	.st14{fill:#F2F2F2;}
</style>
<path class="st0" d="M726.3,0c0,0,382.2,679.5-740.3,768h1366V0H726.3z"/>
<path class="st1" d="M740.3,0c0,0,382.2,679.5-740.3,768h1366V0H740.3z"/>
<g>
	<g>
		<path class="st2" d="M378.1,464.8l-7.5-3.2l-5.2-37.7h-68.8l-5.6,37.6l-6.7,3.4c-0.8,0.4-1.1,1.4-0.7,2.1c0.3,0.5,0.8,0.9,1.4,0.9
			h92.4c0.9,0,1.6-0.7,1.6-1.6C379.1,465.6,378.7,465,378.1,464.8z"/>
		<path class="st3" d="M500.3,428.9H162.5c-3.7,0-6.7-3-6.7-6.7v-47.6H507v47.6C507,425.9,504,428.9,500.3,428.9z"/>
		<path class="st1" d="M507.3,397.1H155.6V193.3c0-4.5,3.6-8.1,8.1-8.1h335.7c4.5,0,8.1,3.6,8.1,8.1L507.3,397.1L507.3,397.1z"/>
		<path class="st4" d="M486.3,382.3H176.6c-3.4,0-6.2-2.8-6.2-6.2V206.2c0-3.4,2.8-6.2,6.2-6.2h309.8c3.4,0,6.2,2.8,6.2,6.2V376
			C492.5,379.5,489.8,382.3,486.3,382.3z"/>
	</g>
	<g>
		<rect x="303.7" y="206.6" class="st5" width="45.1" height="4.2"/>
		<rect x="303.7" y="216.9" class="st5" width="45.1" height="4.2"/>
		<rect x="303.7" y="227.4" class="st5" width="45.1" height="4.2"/>
		<rect x="303.7" y="237.9" class="st5" width="45.1" height="4.2"/>
		<rect x="314.4" y="251.2" class="st6" width="23.8" height="3.7"/>
	</g>
	<g>
		<rect x="201.2" y="246.5" class="st5" width="0.4" height="1.2"/>
		<path class="st5" d="M201.6,273.4h-0.4v-2.6h0.4V273.4z M201.6,268.3h-0.4v-2.6h0.4V268.3z M201.6,263.2h-0.4v-2.6h0.4V263.2z
			 M201.6,258h-0.4v-2.6h0.4V258z M201.6,252.9h-0.4v-2.6h0.4V252.9z"/>
		<rect x="201.2" y="276" class="st5" width="0.4" height="1.2"/>
		<rect x="245.2" y="246.5" class="st5" width="0.4" height="1.2"/>
		<path class="st5" d="M245.6,273.4h-0.4v-2.6h0.4V273.4z M245.6,268.3h-0.4v-2.6h0.4V268.3z M245.6,263.2h-0.4v-2.6h0.4V263.2z
			 M245.6,258h-0.4v-2.6h0.4V258z M245.6,252.9h-0.4v-2.6h0.4V252.9z"/>
		<rect x="245.2" y="276" class="st5" width="0.4" height="1.2"/>
		<rect x="267.4" y="222.9" class="st5" width="0.4" height="1.2"/>
		<path class="st5" d="M267.8,273.5h-0.4V271h0.4V273.5z M267.8,268.6h-0.4v-2.5h0.4V268.6z M267.8,263.7h-0.4v-2.5h0.4V263.7z
			 M267.8,258.7h-0.4v-2.5h0.4V258.7z M267.8,253.8h-0.4v-2.5h0.4V253.8z M267.8,248.8h-0.4v-2.5h0.4V248.8z M267.8,243.9h-0.4v-2.5
			h0.4V243.9z M267.8,239h-0.4v-2.5h0.4V239z M267.8,234h-0.4v-2.5h0.4V234z M267.8,229.1h-0.4v-2.5h0.4V229.1z"/>
		<rect x="267.4" y="276" class="st5" width="0.4" height="1.2"/>
		<rect x="289.4" y="213.3" class="st5" width="0.4" height="1.2"/>
		<path class="st5" d="M289.8,273.6h-0.4v-2.5h0.4V273.6z M289.8,268.6h-0.4v-2.5h0.4V268.6z M289.8,263.7h-0.4v-2.5h0.4V263.7z
			 M289.8,258.8h-0.4v-2.5h0.4V258.8z M289.8,253.9h-0.4v-2.5h0.4V253.9z M289.8,248.9h-0.4v-2.5h0.4V248.9z M289.8,244h-0.4v-2.5
			h0.4V244z M289.8,239.1h-0.4v-2.5h0.4V239.1z M289.8,234.2h-0.4v-2.5h0.4V234.2z M289.8,229.3h-0.4v-2.5h0.4V229.3z M289.8,224.3
			h-0.4v-2.5h0.4V224.3z M289.8,219.4h-0.4V217h0.4V219.4z"/>
		<rect x="289.4" y="276" class="st5" width="0.4" height="1.2"/>
		<rect x="223.3" y="230.4" class="st5" width="0.4" height="1.2"/>
		<path class="st5" d="M223.7,273.7h-0.4v-2.3h0.4V273.7z M223.7,269h-0.4v-2.3h0.4V269z M223.7,264.3h-0.4V262h0.4V264.3z
			 M223.7,259.6h-0.4v-2.3h0.4V259.6z M223.7,255h-0.4v-2.3h0.4V255z M223.7,250.3h-0.4V248h0.4V250.3z M223.7,245.6h-0.4v-2.3h0.4
			V245.6z M223.7,240.9h-0.4v-2.3h0.4V240.9z M223.7,236.3h-0.4V234h0.4V236.3z"/>
		<rect x="223.3" y="276" class="st5" width="0.4" height="1.2"/>
		<path class="st1" d="M291.5,277.8H178.9c-0.2,0-0.4-0.2-0.4-0.4v-63.8c0-0.2,0.2-0.4,0.4-0.4s0.4,0.2,0.4,0.4V277h112.2
			c0.2,0,0.4,0.2,0.4,0.4C291.8,277.6,291.7,277.8,291.5,277.8z"/>
		<polygon class="st1" points="245.6,247.1 223.4,230.5 201.6,246.9 201.1,246.2 223.4,229.5 245.5,246 267.4,222 267.4,222 
			289.5,213.1 289.8,213.9 267.8,222.7 		"/>
		<circle class="st6" cx="201.4" cy="246.5" r="2.5"/>
		<circle class="st6" cx="223.4" cy="230.3" r="2.5"/>
		<circle class="st6" cx="245.5" cy="246.5" r="2.5"/>
		<circle class="st6" cx="267.6" cy="222.4" r="2.5"/>
		<circle class="st6" cx="289.7" cy="213.2" r="2.5"/>
	</g>
	<g>
		<path class="st7" d="M540.7,476.5c1.6-1.9,1.4-4.8-0.6-6.4c-0.2-0.2-0.4-0.3-0.7-0.5l3-15.9l-7.8,3.2l-1.7,14.6
			c-1.1,2.3-0.2,5,2.1,6.1C537.1,478.6,539.4,478.1,540.7,476.5z"/>
		<polygon class="st7" points="579.4,574.1 572.9,574.1 569.7,548.7 579.5,548.7 		"/>
		<path class="st8" d="M581.1,580.5h-21.2v-0.3c0-4.6,3.7-8.3,8.3-8.3l0,0h13L581.1,580.5L581.1,580.5z"/>
		<polygon class="st7" points="543.5,574.1 536.9,574.1 533.8,548.7 543.5,548.7 		"/>
		<path class="st8" d="M543.6,580.5h-21.2v-0.3c0-4.6,3.7-8.3,8.3-8.3l0,0h13L543.6,580.5z"/>
		<polygon class="st1" points="543,467 536.5,481.8 531.2,567 544.6,566.5 548.3,525.9 559.6,489.7 566.1,530 568.8,565.4 
			579.9,565.9 584.3,467 		"/>
		<path class="st9" d="M575.1,393.8l-18.7,0.5l-11,5.6l-0.6,41.5l-6.8,28.7c0,0,42.7,2.9,48.6-1.4l-7-32.7l9.4-35.4L575.1,393.8z"/>
		<path class="st9" d="M547.5,400.5l-2-0.6c0,0-6.3,4.1-5.7,13.9c0,0-0.2,5.1,0,8.5c0.3,3.9-7.5,42.4-7.5,42.4h11.3l4.8-34.9
			L547.5,400.5z"/>
		<path class="st9" d="M588.8,477c-1.6-1.9-1.4-4.8,0.6-6.4c0.2-0.2,0.4-0.3,0.7-0.5l-3-15.9l7.8,3.2l1.7,14.6
			c1.1,2.3,0.2,5-2.1,6.1C592.4,479.1,590.1,478.7,588.8,477z"/>
		<path class="st9" d="M586.3,401l2-0.6c0,0,6.3,4.1,5.7,13.9c0,0,0.2,5.1,0,8.5c-0.3,3.9,3.2,42.4,3.2,42.4h-11.3l-4.8-34.9
			L586.3,401z"/>
		<path class="st7" d="M579.7,376.3c0,7.1-5.8,12.9-12.9,12.9s-12.9-5.8-12.9-12.9s5.8-12.9,12.9-12.9l0,0
			C573.9,363.4,579.7,369.2,579.7,376.3L579.7,376.3z"/>
		<path class="st8" d="M553.9,359c1.5-3.3,4.4-2.6,7-1.5c3.2-0.7,6.3-2.9,9.8-1.6c3.4,5,15,3.5,12.6,11.7c0,2,3.7,0.8,3,4
			c2,6.2-7,17.8-12.2,15.4c1.3-2.3,4.2-7.7-0.2-8.2c-9.5,8.9-1-16.9-12.9-9.4C557,373,551.6,362.6,553.9,359z"/>
	</g>
	<g>
		<path class="st8" d="M122.3,362.6l-29.6,3.7c-1.3,0.2-2.4-0.7-2.6-2l-1.6-12.8c-1.2-9.5,5.5-18.1,15-19.3s18.1,5.5,19.3,15
			l1.6,12.8C124.5,361.3,123.6,362.4,122.3,362.6z"/>
		<circle class="st10" cx="110.1" cy="351.1" r="12.6"/>
		<path class="st8" d="M127,348l-18.1,2.3l-0.5-2.6l-0.6,2.7l-2.8,0.3l-1-5.1l-1.2,5.4l-5.4,0.7v-0.3c-0.9-7.5,4.4-14.3,11.9-15.2
			l2.6-0.3c7.5-0.9,14.3,4.4,15.2,11.9L127,348z"/>
		<path class="st10" d="M172,396.3c1.2-2.4,0.7-5.3-1.4-7.1c-2.4-2.1-6.1-1.9-8.3,0.6L146,399l5.8,6l11.5-6.7
			c0.3,0.2,0.6,0.4,0.9,0.5C167,400.3,170.6,399.1,172,396.3L172,396.3z"/>
		<path class="st11" d="M128.9,407c-2.8-4-21.2-28.2-21.3-28.4l-0.4-0.5l14.2,1.4l12.4,17.4l22.8-4.5l2.3,11.9l-0.3,0.1
			c-0.8,0.2-15.7,4-24.2,4C131.6,408.4,129.6,408,128.9,407z"/>
		<path class="st11" d="M121.2,390.2l-6.8-16l8,4.5l6.3,16.9v9.2c1.2,2,18.6,30.9,14.9,37.7c-3.7,6.8-10.9,10.3-11,10.4l-0.3,0.2
			L121.2,390.2z"/>
		<polygon class="st10" points="140.1,522.1 151.3,522.1 147.7,551.5 140.1,551.5 		"/>
		<path class="st8" d="M138.1,549h15l0,0c5.3,0,9.6,4.3,9.6,9.6v0.3h-24.6V549z"/>
		<polygon class="st10" points="67.4,516.9 78.1,520.4 65.5,547.2 58.2,544.8 		"/>
		<path class="st8" d="M57.2,541.9l14.3,4.7l0,0c5,1.6,7.8,7,6.1,12.1l-0.1,0.3l-23.3-7.6L57.2,541.9z"/>
		<path class="st8" d="M54.2,537.7L77.3,486l10.5-31c-3.7-9.9,2.7-19,9-27.8l0.7-1.1l-1.3-18.2l27.5-4.1L159,543.5l0.1,0.4l-23-0.3
			l-6.6-44.3L113,465l-18.3,38.7L73,540L54.2,537.7z"/>
		<path class="st6" d="M97.3,426.7l-0.1-0.1l7-57.8l13.8,8.7l3.1,5.6c0.6,0.5,7.1,6.4,2.2,13.5l5.7,25.1l-0.2,0.1
			c2.4,7.8-2.2,12.3-6.2,12.3C119.2,434.1,102.3,431.5,97.3,426.7z"/>
		<path class="st11" d="M77.2,441.9l-0.2-0.1l8.7-40l2.4-34l0.1-0.1c0.7-1,1.9-1.7,3.1-1.9c3-0.4,6.3,1.9,6.9,2.3l7.5-1.2l0.1,0.1
			c4.6,5.1-1.7,57.2-7,74.5c-1.3,4.4-2.2,5-2.7,5.2c-0.5,0.1-1.1,0.2-1.6,0.2C88.6,447.1,77.7,442.2,77.2,441.9z"/>
		<path class="st10" d="M99.4,433.8c2.7,0.1,5.1-1.7,5.9-4.3c0.9-3.1-0.9-6.4-4-7.2L86,411.4l-3,7.8l11,7.6c-0.1,0.3-0.1,0.7-0.1,1
			C93.7,431,96.2,433.7,99.4,433.8L99.4,433.8z"/>
		<path class="st11" d="M86.4,425.1c-0.7-0.9-17.5-21.3-14.9-25.8C74,395,88,368.2,88.2,367.9l0.3-0.6l4.7,13.5l-10.5,18.6
			l13.7,18.7l-9.8,7.2L86.4,425.1z"/>
	</g>
	<g>
		<rect x="177.6" y="290.5" class="st1" width="110.9" height="84.7"/>
		<rect x="179" y="291.5" class="st4" width="108.1" height="82.6"/>
		<path class="st12" d="M234.8,351.3L234.8,351.3c14.7-0.8,26-13.3,25.2-28c-0.7-13.4-11.2-24.2-24.6-25.2c-0.2,0-0.3,0-0.5,0.2
			c-0.1,0.1-0.2,0.3-0.2,0.4l-0.6,51.9C234.2,351,234.5,351.3,234.8,351.3L234.8,351.3z"/>
		<path class="st2" d="M213.9,306.7c0.2,0,0.4,0.1,0.6,0.2l17.9,18.3c0.1,0.1,0.2,0.3,0.2,0.6l-0.3,24.9c0,0.2-0.1,0.4-0.3,0.6
			c-0.2,0.1-0.4,0.2-0.6,0.2c-14.8-1.1-25.8-14-24.7-28.7c0.4-5.8,2.8-11.3,6.6-15.7C213.4,306.8,213.7,306.7,213.9,306.7
			L213.9,306.7z"/>
		<path class="st6" d="M232.1,297.9c0.2,0,0.4,0.1,0.5,0.2c0.2,0.1,0.2,0.4,0.2,0.6l-0.3,22.4c0,0.4-0.4,0.8-0.8,0.8
			c-0.2,0-0.4-0.1-0.5-0.2l-15.6-16c-0.3-0.3-0.3-0.8,0-1.1l0,0C220.2,300.6,226,298.2,232.1,297.9L232.1,297.9z"/>
		<path class="st6" d="M224,362.1c0,2.6-2.2,4.8-4.8,4.7c-2.6,0-4.8-2.2-4.7-4.8c0-2.6,2.2-4.8,4.8-4.7l0,0
			C222,357.3,224.1,359.4,224,362.1z"/>
		<path class="st12" d="M237.7,362.2c0,2.6-2.2,4.8-4.8,4.7s-4.8-2.2-4.7-4.8c0-2.6,2.2-4.8,4.8-4.7l0,0
			C235.6,357.4,237.7,359.6,237.7,362.2z"/>
		<path class="st2" d="M251.4,362.4c0,2.6-2.2,4.8-4.8,4.7c-2.6,0-4.8-2.2-4.7-4.8c0-2.6,2.2-4.8,4.8-4.7l0,0
			C249.3,357.6,251.4,359.7,251.4,362.4z"/>
	</g>
	<g>
		<polygon class="st13" points="497.4,556 488.8,556 491.6,578.4 497.4,578.4 		"/>
		<path class="st8" d="M498.8,584h-18.7v-0.2c0-4,3.3-7.3,7.3-7.3l0,0h11.4L498.8,584z"/>
		<polygon class="st13" points="469.9,556 461.4,556 464.1,578.4 469.9,578.4 		"/>
		<path class="st8" d="M471.4,584h-18.7v-0.2c0-4,3.3-7.3,7.3-7.3l0,0h11.4L471.4,584L471.4,584z"/>
		<path class="st13" d="M459.1,476.1c1.5,1.8,4.1,2.3,6.2,1.2c2.5-1.3,3.5-4.4,2.2-6.9l12.5-43.3l-10.3-4.1l-9.4,45.3
			c-0.3,0.2-0.5,0.3-0.7,0.5C457.5,470.8,457.3,474,459.1,476.1L459.1,476.1z"/>
		<path class="st8" d="M469.6,464.5l-14.4,53.7l5.3,51.4l11.7,0.3l-2.5-46.4l14.5-23.2l3.1,69.9l10.6-0.8l5.9-60
			c8.8-20.7,4.2-37.5,4.2-37.5l-4.3-4.3L469.6,464.5z"/>
		<path class="st9" d="M467.3,468L467.3,468l3.9-25.6l4.2-28.7c0.6-3.8,3.9-6.7,7.8-6.5l20.7,0.7l-2.2,36l6.4,28h-0.3
			c-6.4,0.8-12.8,1.2-19.2,1.3C479.6,473.2,470.2,472.2,467.3,468z"/>
		<path class="st9" d="M479,443.2l-14.4-1.2c0,0,4.3-17.5,6.7-28.4s9.7-5.8,9.7-5.8l4.2,5.3L479,443.2z"/>
		<path class="st13" d="M525,476.6c-1.5,1.8-4.1,2.3-6.2,1.2c-2.5-1.3-3.5-4.4-2.2-6.9l-12.5-43.3l10.3-4.1l9.4,45.3
			c0.3,0.2,0.5,0.3,0.7,0.5C526.7,471.3,526.9,474.5,525,476.6L525,476.6z"/>
		<path class="st9" d="M505.2,443.7l14.4-1.2c0,0-4.3-17.5-6.7-28.4c-2.3-10.8-9.7-5.8-9.7-5.8l-4.2,5.3L505.2,443.7z"/>
		<path class="st8" d="M479.1,399.8V388l0,0c0-8.8,7.1-15.8,15.8-15.8s15.8,7.1,15.8,15.8v11.8c0,1.2-1,2.1-2.1,2.1h-27.4
			C480.1,401.9,479.1,401,479.1,399.8z"/>
		<circle class="st13" cx="491.9" cy="389.6" r="11.6"/>
		<path class="st8" d="M475.4,388.9c0-6.9,5.6-12.5,12.5-12.5h2.4c6.9,0,12.5,5.6,12.5,12.5v0.2h-5l-1.7-4.8l-0.3,4.8h-2.6l-0.9-2.4
			l-0.2,2.4h-16.8L475.4,388.9L475.4,388.9z"/>
		<path class="st8" d="M490.6,403.3c-0.5-0.6-0.5-1.5-0.2-2.2c2.5-4.8,6-13.6,1.4-19l-0.3-0.4H505V402l-12.3,2.2c-0.1,0-0.2,0-0.4,0
			C491.6,404.2,491,403.8,490.6,403.3z"/>
	</g>
	<g>
		<circle class="st6" cx="330.7" cy="307.2" r="11.9"/>
		<path class="st14" d="M355,374.4L355,374.4c-0.9,0-1.6-0.7-1.6-1.6v-92.6c0-0.9,0.7-1.6,1.6-1.6h78c0.9,0,1.6,0.7,1.6,1.6v72
			c0,0.9-0.7,1.6-1.6,1.6L355,374.4z"/>
		<path class="st11" d="M412.6,265.5h-36.2v-21c0-0.9,0.7-1.7,1.7-1.7H411c0.9,0,1.7,0.7,1.7,1.7L412.6,265.5L412.6,265.5z
			 M376.8,265.1h35.5v-20.6c0-0.7-0.6-1.3-1.3-1.3h-32.9c-0.7,0-1.3,0.6-1.3,1.3L376.8,265.1L376.8,265.1z"/>
		<path class="st2" d="M386.7,250.8h15.6c0.8,0,1.5,0.7,1.5,1.5v22.3l0,0h-18.6l0,0v-22.3C385.2,251.5,385.9,250.8,386.7,250.8
			L386.7,250.8z"/>
		<path class="st11" d="M389.8,243.2h-7.6v-7.6c0-0.5,0.4-0.9,0.9-0.9h5.8c0.5,0,0.9,0.4,0.9,0.9L389.8,243.2L389.8,243.2z
			 M382.5,242.8h6.9v-7.2c0-0.3-0.2-0.6-0.6-0.6H383c-0.3,0-0.6,0.2-0.6,0.6L382.5,242.8L382.5,242.8z"/>
		<path class="st11" d="M452.3,355.1c-0.1,0-0.1,0-0.2,0c-4.6-0.1-9-1.8-12.4-4.9c-0.1-0.1-0.3-0.2-0.4-0.3l-0.1-0.1v-35.6l0,0
			c0.1-0.3,0.2-0.5,0.4-0.8c3.9-7.8,8.4-12.2,12.7-12.2c6.2,0,11.1,8.5,13.4,13.6c3.2,7.1,5.5,15.8,5.5,21.3
			c0,10.3-8.3,18.7-18.6,18.9C452.5,355.1,452.4,355.1,452.3,355.1z M439.6,349.7c0.1,0.1,0.2,0.2,0.3,0.3c3.3,3,7.7,4.7,12.2,4.8
			c0.1,0,0.1,0,0.2,0s0.1,0,0.2,0c10.1-0.1,18.3-8.4,18.3-18.5c0-5.4-2.2-14.1-5.5-21.2c-2.3-5-7-13.4-13-13.4
			c-4.2,0-8.6,4.2-12.3,11.9c-0.1,0.2-0.2,0.5-0.4,0.7L439.6,349.7L439.6,349.7z"/>
		<path class="st3" d="M452.3,377.6c-0.1,0-0.2-0.1-0.2-0.2v-43.6c0-0.1,0.1-0.2,0.2-0.2s0.2,0.1,0.2,0.2l0,0v43.6
			C452.5,377.5,452.5,377.6,452.3,377.6z"/>
		<path class="st3" d="M341.5,377.6c-0.1,0-0.2-0.1-0.2-0.2v-43.6c0-0.1,0.1-0.2,0.2-0.2s0.2,0.1,0.2,0.2l0,0v43.6
			C341.7,377.5,341.6,377.6,341.5,377.6z"/>
		<path class="st3" d="M452.3,342c-0.1,0-0.1,0-0.2-0.1l-10.7-12.4c-0.1-0.1-0.1-0.2,0-0.3s0.2-0.1,0.3,0l10.7,12.4
			c0.1,0.1,0.1,0.2,0,0.3C452.4,341.9,452.4,342,452.3,342z"/>
		<path class="st3" d="M452.3,349.1c-0.1,0-0.2-0.1-0.2-0.2s0-0.1,0.1-0.2l6.1-6.1c0.1-0.1,0.2-0.1,0.3,0c0.1,0.1,0.1,0.2,0,0.3
			l-6.1,6.1C452.4,349.1,452.4,349.1,452.3,349.1z"/>
		<path class="st11" d="M472.1,377.7h-16v-0.2c0-4.4,3.6-8,8-8s8,3.6,8,8l0,0V377.7z M456.5,377.3h15.2c-0.1-4.2-3.6-7.5-7.8-7.4
			C459.9,370,456.6,373.3,456.5,377.3L456.5,377.3z"/>
		<path class="st11" d="M464.1,373c-0.1,0-0.2,0.1-0.2,0.2v2.2l-2.2-1.9c-0.1-0.1-0.2-0.1-0.3,0s-0.1,0.2,0,0.3l0,0l2.5,2.1v1.3
			c0,0.1,0.1,0.2,0.2,0.2s0.2-0.1,0.2-0.2l0,0v-4.1C464.3,373.1,464.2,373,464.1,373z"/>
		<path class="st11" d="M338.2,377.7h-16v-0.2c0-4.4,3.6-8,8-8s8,3.6,8,8V377.7L338.2,377.7z M322.6,377.3h15.2
			c-0.1-4.2-3.6-7.5-7.8-7.4C326,370,322.7,373.3,322.6,377.3L322.6,377.3z"/>
		<path class="st11" d="M330.3,373c-0.1,0-0.2,0.1-0.2,0.2v2.2l-2.2-1.9c-0.1-0.1-0.2-0.1-0.3,0s-0.1,0.2,0,0.3l0,0l2.5,2.1v1.3
			c0,0.1,0.1,0.2,0.2,0.2s0.2-0.1,0.2-0.2l0,0v-4.1C330.5,373.1,330.4,373,330.3,373z"/>
		<path class="st11" d="M341.7,355.1c-0.1,0-0.1,0-0.2,0c-10.3-0.1-18.6-8.5-18.6-18.9c0-5.5,2.3-14.2,5.5-21.3
			c2.3-5.1,7.2-13.6,13.4-13.6c2.6,0,5.1,1.5,7.7,4.3c0.1,0.1,0.3,0.3,0.4,0.4v0.1v47.2l-0.1,0.1c-0.1,0.1-0.3,0.1-0.4,0.2
			c-2.3,1-4.8,1.6-7.4,1.6C341.8,355.1,341.8,355.1,341.7,355.1z M341.7,301.7c-6,0-10.8,8.4-13,13.4c-3.2,7-5.5,15.7-5.5,21.2
			c0,10.1,8.2,18.4,18.3,18.5c0.1,0,0.1,0,0.2,0s0.1,0,0.2,0c2.5,0,5-0.6,7.3-1.6c0.1,0,0.2-0.1,0.3-0.1v-46.8
			c-0.1-0.1-0.2-0.3-0.3-0.4C346.6,303.1,344.1,301.7,341.7,301.7z"/>
		<path class="st3" d="M341.7,342c-0.1,0-0.1,0-0.2-0.1l-10.7-12.4c-0.1-0.1-0.1-0.2,0-0.3s0.2-0.1,0.3,0l10.7,12.4
			c0.1,0.1,0.1,0.2,0,0.3L341.7,342z"/>
		<path class="st3" d="M341.7,349.1c-0.1,0-0.2-0.1-0.2-0.2s0-0.1,0.1-0.2l6.1-6.1c0.1-0.1,0.2-0.1,0.3,0c0.1,0.1,0.1,0.2,0,0.3
			l-6.1,6.1C341.8,349.1,341.7,349.1,341.7,349.1z"/>
		<path class="st11" d="M358.5,267l0.1,0.3c0.1,0.1,0.1,0.2,0.1,0.4v7.3h6.5v-7.3c0-0.1,0-0.3,0.1-0.4l0.1-0.3H358.5z M364.8,267.6
			v7H359v-7c0-0.1,0-0.2,0-0.3h5.8C364.8,267.4,364.8,267.5,364.8,267.6L364.8,267.6z M366.6,267l0.1,0.3c0.1,0.1,0.1,0.2,0.1,0.4
			v7.3h6.5v-7.3c0-0.1,0-0.3,0.1-0.4l0.1-0.3H366.6z M373,267.6v7h-5.8v-7c0-0.1,0-0.2,0-0.3h5.8C373,267.4,373,267.5,373,267.6
			L373,267.6z M374.8,267l0.1,0.3c0.1,0.1,0.1,0.2,0.1,0.4v7.3h6.5v-7.3c0-0.1,0-0.3,0.1-0.4l0.1-0.3H374.8z M381.2,267.6v7h-5.8v-7
			c0-0.1,0-0.2,0-0.3h5.8C381.2,267.4,381.2,267.5,381.2,267.6L381.2,267.6z M383,267l0.1,0.3c0.1,0.1,0.1,0.2,0.1,0.4v7.3h6.5v-7.3
			c0-0.1,0-0.3,0.1-0.4l0.1-0.3H383z M389.3,267.6v7h-5.8v-7c0-0.1,0-0.2,0-0.3h5.8C389.3,267.4,389.3,267.5,389.3,267.6z
			 M391.1,267l0.1,0.3c0.1,0.1,0.1,0.2,0.1,0.4v7.3h6.5v-7.3c0-0.1,0-0.3,0.1-0.4l0.1-0.3H391.1z M397.5,267.6v7h-5.8v-7
			c0-0.1,0-0.2,0-0.3h5.8C397.5,267.4,397.5,267.5,397.5,267.6z M399.3,267l0.1,0.3c0.1,0.1,0.1,0.2,0.1,0.4v7.3h6.5v-7.3
			c0-0.1,0-0.3,0.1-0.4l0.1-0.3H399.3z M405.7,267.6v7h-5.8v-7c0-0.1,0-0.2,0-0.3h5.8C405.7,267.4,405.7,267.5,405.7,267.6z
			 M407.5,267l0.1,0.3c0.1,0.1,0.1,0.2,0.1,0.4v7.3h6.5v-7.3c0-0.1,0-0.3,0.1-0.4l0.1-0.3H407.5z M413.8,267.6v7H408v-7
			c0-0.1,0-0.2,0-0.3h5.8C413.8,267.4,413.8,267.5,413.8,267.6z M415.6,267l0.1,0.3c0.1,0.1,0.1,0.2,0.1,0.4v7.3h6.5v-7.3
			c0-0.1,0-0.3,0.1-0.4l0.1-0.3H415.6z M422,267.6v7h-5.8v-7c0-0.1,0-0.2,0-0.3h5.8C422,267.4,422,267.5,422,267.6z M423.8,267
			l0.1,0.3c0.1,0.1,0.1,0.2,0.1,0.4v7.3h6.5v-7.3c0-0.1,0-0.3,0.1-0.4l0.1-0.3H423.8z M430.2,267.6v7h-5.8v-7c0-0.1,0-0.2,0-0.3h5.8
			C430.2,267.4,430.2,267.5,430.2,267.6z M423.8,267l0.1,0.3c0.1,0.1,0.1,0.2,0.1,0.4v7.3h6.5v-7.3c0-0.1,0-0.3,0.1-0.4l0.1-0.3
			H423.8z M430.2,267.6v7h-5.8v-7c0-0.1,0-0.2,0-0.3h5.8C430.2,267.4,430.2,267.5,430.2,267.6z M415.6,267l0.1,0.3
			c0.1,0.1,0.1,0.2,0.1,0.4v7.3h6.5v-7.3c0-0.1,0-0.3,0.1-0.4l0.1-0.3H415.6z M422,267.6v7h-5.8v-7c0-0.1,0-0.2,0-0.3h5.8
			C422,267.4,422,267.5,422,267.6z M407.5,267l0.1,0.3c0.1,0.1,0.1,0.2,0.1,0.4v7.3h6.5v-7.3c0-0.1,0-0.3,0.1-0.4l0.1-0.3H407.5z
			 M413.8,267.6v7H408v-7c0-0.1,0-0.2,0-0.3h5.8C413.8,267.4,413.8,267.5,413.8,267.6z M399.3,267l0.1,0.3c0.1,0.1,0.1,0.2,0.1,0.4
			v7.3h6.5v-7.3c0-0.1,0-0.3,0.1-0.4l0.1-0.3H399.3z M405.7,267.6v7h-5.8v-7c0-0.1,0-0.2,0-0.3h5.8
			C405.7,267.4,405.7,267.5,405.7,267.6z M391.1,267l0.1,0.3c0.1,0.1,0.1,0.2,0.1,0.4v7.3h6.5v-7.3c0-0.1,0-0.3,0.1-0.4l0.1-0.3
			H391.1z M397.5,267.6v7h-5.8v-7c0-0.1,0-0.2,0-0.3h5.8C397.5,267.4,397.5,267.5,397.5,267.6z M383,267l0.1,0.3
			c0.1,0.1,0.1,0.2,0.1,0.4v7.3h6.5v-7.3c0-0.1,0-0.3,0.1-0.4l0.1-0.3H383z M389.3,267.6v7h-5.8v-7c0-0.1,0-0.2,0-0.3h5.8
			C389.3,267.4,389.3,267.5,389.3,267.6z M374.8,267l0.1,0.3c0.1,0.1,0.1,0.2,0.1,0.4v7.3h6.5v-7.3c0-0.1,0-0.3,0.1-0.4l0.1-0.3
			H374.8z M381.2,267.6v7h-5.8v-7c0-0.1,0-0.2,0-0.3h5.8C381.2,267.4,381.2,267.5,381.2,267.6L381.2,267.6z M366.6,267l0.1,0.3
			c0.1,0.1,0.1,0.2,0.1,0.4v7.3h6.5v-7.3c0-0.1,0-0.3,0.1-0.4l0.1-0.3H366.6z M373,267.6v7h-5.8v-7c0-0.1,0-0.2,0-0.3h5.8
			C373,267.4,373,267.5,373,267.6L373,267.6z M358.5,267l0.1,0.3c0.1,0.1,0.1,0.2,0.1,0.4v7.3h6.5v-7.3c0-0.1,0-0.3,0.1-0.4l0.1-0.3
			H358.5z M364.8,267.6v7H359v-7c0-0.1,0-0.2,0-0.3h5.8C364.8,267.4,364.8,267.5,364.8,267.6L364.8,267.6z M423.8,267l0.1,0.3
			c0.1,0.1,0.1,0.2,0.1,0.4v7.3h6.5v-7.3c0-0.1,0-0.3,0.1-0.4l0.1-0.3H423.8z M430.2,267.6v7h-5.8v-7c0-0.1,0-0.2,0-0.3h5.8
			C430.2,267.4,430.2,267.5,430.2,267.6z M415.6,267l0.1,0.3c0.1,0.1,0.1,0.2,0.1,0.4v7.3h6.5v-7.3c0-0.1,0-0.3,0.1-0.4l0.1-0.3
			H415.6z M422,267.6v7h-5.8v-7c0-0.1,0-0.2,0-0.3h5.8C422,267.4,422,267.5,422,267.6z M407.5,267l0.1,0.3c0.1,0.1,0.1,0.2,0.1,0.4
			v7.3h6.5v-7.3c0-0.1,0-0.3,0.1-0.4l0.1-0.3H407.5z M413.8,267.6v7H408v-7c0-0.1,0-0.2,0-0.3h5.8
			C413.8,267.4,413.8,267.5,413.8,267.6z M399.3,267l0.1,0.3c0.1,0.1,0.1,0.2,0.1,0.4v7.3h6.5v-7.3c0-0.1,0-0.3,0.1-0.4l0.1-0.3
			H399.3z M405.7,267.6v7h-5.8v-7c0-0.1,0-0.2,0-0.3h5.8C405.7,267.4,405.7,267.5,405.7,267.6z M391.1,267l0.1,0.3
			c0.1,0.1,0.1,0.2,0.1,0.4v7.3h6.5v-7.3c0-0.1,0-0.3,0.1-0.4l0.1-0.3H391.1z M397.5,267.6v7h-5.8v-7c0-0.1,0-0.2,0-0.3h5.8
			C397.5,267.4,397.5,267.5,397.5,267.6z M383,267l0.1,0.3c0.1,0.1,0.1,0.2,0.1,0.4v7.3h6.5v-7.3c0-0.1,0-0.3,0.1-0.4l0.1-0.3H383z
			 M389.3,267.6v7h-5.8v-7c0-0.1,0-0.2,0-0.3h5.8C389.3,267.4,389.3,267.5,389.3,267.6z M374.8,267l0.1,0.3c0.1,0.1,0.1,0.2,0.1,0.4
			v7.3h6.5v-7.3c0-0.1,0-0.3,0.1-0.4l0.1-0.3H374.8z M381.2,267.6v7h-5.8v-7c0-0.1,0-0.2,0-0.3h5.8
			C381.2,267.4,381.2,267.5,381.2,267.6L381.2,267.6z M366.6,267l0.1,0.3c0.1,0.1,0.1,0.2,0.1,0.4v7.3h6.5v-7.3c0-0.1,0-0.3,0.1-0.4
			l0.1-0.3H366.6z M373,267.6v7h-5.8v-7c0-0.1,0-0.2,0-0.3h5.8C373,267.4,373,267.5,373,267.6L373,267.6z M358.5,267l0.1,0.3
			c0.1,0.1,0.1,0.2,0.1,0.4v7.3h6.5v-7.3c0-0.1,0-0.3,0.1-0.4l0.1-0.3H358.5z M364.8,267.6v7H359v-7c0-0.1,0-0.2,0-0.3h5.8
			C364.8,267.4,364.8,267.5,364.8,267.6L364.8,267.6z M423.8,267l0.1,0.3c0.1,0.1,0.1,0.2,0.1,0.4v7.3h6.5v-7.3c0-0.1,0-0.3,0.1-0.4
			l0.1-0.3H423.8z M430.2,267.6v7h-5.8v-7c0-0.1,0-0.2,0-0.3h5.8C430.2,267.4,430.2,267.5,430.2,267.6z M415.6,267l0.1,0.3
			c0.1,0.1,0.1,0.2,0.1,0.4v7.3h6.5v-7.3c0-0.1,0-0.3,0.1-0.4l0.1-0.3H415.6z M422,267.6v7h-5.8v-7c0-0.1,0-0.2,0-0.3h5.8
			C422,267.4,422,267.5,422,267.6z M407.5,267l0.1,0.3c0.1,0.1,0.1,0.2,0.1,0.4v7.3h6.5v-7.3c0-0.1,0-0.3,0.1-0.4l0.1-0.3H407.5z
			 M413.8,267.6v7H408v-7c0-0.1,0-0.2,0-0.3h5.8C413.8,267.4,413.8,267.5,413.8,267.6z M399.3,267l0.1,0.3c0.1,0.1,0.1,0.2,0.1,0.4
			v7.3h6.5v-7.3c0-0.1,0-0.3,0.1-0.4l0.1-0.3H399.3z M405.7,267.6v7h-5.8v-7c0-0.1,0-0.2,0-0.3h5.8
			C405.7,267.4,405.7,267.5,405.7,267.6z M391.1,267l0.1,0.3c0.1,0.1,0.1,0.2,0.1,0.4v7.3h6.5v-7.3c0-0.1,0-0.3,0.1-0.4l0.1-0.3
			H391.1z M397.5,267.6v7h-5.8v-7c0-0.1,0-0.2,0-0.3h5.8C397.5,267.4,397.5,267.5,397.5,267.6z M383,267l0.1,0.3
			c0.1,0.1,0.1,0.2,0.1,0.4v7.3h6.5v-7.3c0-0.1,0-0.3,0.1-0.4l0.1-0.3H383z M389.3,267.6v7h-5.8v-7c0-0.1,0-0.2,0-0.3h5.8
			C389.3,267.4,389.3,267.5,389.3,267.6z M374.8,267l0.1,0.3c0.1,0.1,0.1,0.2,0.1,0.4v7.3h6.5v-7.3c0-0.1,0-0.3,0.1-0.4l0.1-0.3
			H374.8z M381.2,267.6v7h-5.8v-7c0-0.1,0-0.2,0-0.3h5.8C381.2,267.4,381.2,267.5,381.2,267.6L381.2,267.6z M366.6,267l0.1,0.3
			c0.1,0.1,0.1,0.2,0.1,0.4v7.3h6.5v-7.3c0-0.1,0-0.3,0.1-0.4l0.1-0.3H366.6z M373,267.6v7h-5.8v-7c0-0.1,0-0.2,0-0.3h5.8
			C373,267.4,373,267.5,373,267.6L373,267.6z M358.5,267l0.1,0.3c0.1,0.1,0.1,0.2,0.1,0.4v7.3h6.5v-7.3c0-0.1,0-0.3,0.1-0.4l0.1-0.3
			H358.5z M364.8,267.6v7H359v-7c0-0.1,0-0.2,0-0.3h5.8C364.8,267.4,364.8,267.5,364.8,267.6L364.8,267.6z M423.8,267l0.1,0.3
			c0.1,0.1,0.1,0.2,0.1,0.4v7.3h6.5v-7.3c0-0.1,0-0.3,0.1-0.4l0.1-0.3H423.8z M430.2,267.6v7h-5.8v-7c0-0.1,0-0.2,0-0.3h5.8
			C430.2,267.4,430.2,267.5,430.2,267.6z M415.6,267l0.1,0.3c0.1,0.1,0.1,0.2,0.1,0.4v7.3h6.5v-7.3c0-0.1,0-0.3,0.1-0.4l0.1-0.3
			H415.6z M422,267.6v7h-5.8v-7c0-0.1,0-0.2,0-0.3h5.8C422,267.4,422,267.5,422,267.6z M407.5,267l0.1,0.3c0.1,0.1,0.1,0.2,0.1,0.4
			v7.3h6.5v-7.3c0-0.1,0-0.3,0.1-0.4l0.1-0.3H407.5z M413.8,267.6v7H408v-7c0-0.1,0-0.2,0-0.3h5.8
			C413.8,267.4,413.8,267.5,413.8,267.6z M399.3,267l0.1,0.3c0.1,0.1,0.1,0.2,0.1,0.4v7.3h6.5v-7.3c0-0.1,0-0.3,0.1-0.4l0.1-0.3
			H399.3z M405.7,267.6v7h-5.8v-7c0-0.1,0-0.2,0-0.3h5.8C405.7,267.4,405.7,267.5,405.7,267.6z M391.1,267l0.1,0.3
			c0.1,0.1,0.1,0.2,0.1,0.4v7.3h6.5v-7.3c0-0.1,0-0.3,0.1-0.4l0.1-0.3H391.1z M397.5,267.6v7h-5.8v-7c0-0.1,0-0.2,0-0.3h5.8
			C397.5,267.4,397.5,267.5,397.5,267.6z M383,267l0.1,0.3c0.1,0.1,0.1,0.2,0.1,0.4v7.3h6.5v-7.3c0-0.1,0-0.3,0.1-0.4l0.1-0.3H383z
			 M389.3,267.6v7h-5.8v-7c0-0.1,0-0.2,0-0.3h5.8C389.3,267.4,389.3,267.5,389.3,267.6z M374.8,267l0.1,0.3c0.1,0.1,0.1,0.2,0.1,0.4
			v7.3h6.5v-7.3c0-0.1,0-0.3,0.1-0.4l0.1-0.3H374.8z M381.2,267.6v7h-5.8v-7c0-0.1,0-0.2,0-0.3h5.8
			C381.2,267.4,381.2,267.5,381.2,267.6L381.2,267.6z M366.6,267l0.1,0.3c0.1,0.1,0.1,0.2,0.1,0.4v7.3h6.5v-7.3c0-0.1,0-0.3,0.1-0.4
			l0.1-0.3H366.6z M373,267.6v7h-5.8v-7c0-0.1,0-0.2,0-0.3h5.8C373,267.4,373,267.5,373,267.6L373,267.6z M358.5,267l0.1,0.3
			c0.1,0.1,0.1,0.2,0.1,0.4v7.3h6.5v-7.3c0-0.1,0-0.3,0.1-0.4l0.1-0.3H358.5z M364.8,267.6v7H359v-7c0-0.1,0-0.2,0-0.3h5.8
			C364.8,267.4,364.8,267.5,364.8,267.6L364.8,267.6z M423.8,267l0.1,0.3c0.1,0.1,0.1,0.2,0.1,0.4v7.3h6.5v-7.3c0-0.1,0-0.3,0.1-0.4
			l0.1-0.3H423.8z M430.2,267.6v7h-5.8v-7c0-0.1,0-0.2,0-0.3h5.8C430.2,267.4,430.2,267.5,430.2,267.6z M415.8,267.2
			c0.1,0.1,0.1,0.2,0.1,0.4v7.3h6.5v-7.3c0-0.1,0-0.3,0.1-0.4l0.1-0.3h-7L415.8,267.2z M422,267.3c0,0.1,0,0.2,0,0.3v7h-5.8v-7
			c0-0.1,0-0.2,0-0.3H422z M407.6,267.2c0.1,0.1,0.1,0.2,0.1,0.4v7.3h6.5v-7.3c0-0.1,0-0.3,0.1-0.4l0.1-0.3h-7L407.6,267.2z
			 M413.9,267.3c0,0.1,0,0.2,0,0.3v7h-5.8v-7c0-0.1,0-0.2,0-0.3H413.9z M399.4,267.2c0.1,0.1,0.1,0.2,0.1,0.4v7.3h6.5v-7.3
			c0-0.1,0-0.3,0.1-0.4l0.1-0.3h-7L399.4,267.2z M405.7,267.3c0,0.1,0,0.2,0,0.3v7h-5.8v-7c0-0.1,0-0.2,0-0.3H405.7z M391.3,267.2
			c0.1,0.1,0.1,0.2,0.1,0.4v7.3h6.5v-7.3c0-0.1,0-0.3,0.1-0.4l0.1-0.3h-7L391.3,267.2z M397.5,267.3c0,0.1,0,0.2,0,0.3v7h-5.8v-7
			c0-0.1,0-0.2,0-0.3H397.5z M383.1,267.2c0.1,0.1,0.1,0.2,0.1,0.4v7.3h6.5v-7.3c0-0.1,0-0.3,0.1-0.4l0.1-0.3h-7L383.1,267.2z
			 M389.4,267.3c0,0.1,0,0.2,0,0.3v7h-5.8v-7c0-0.1,0-0.2,0-0.3H389.4z M374.9,267.2c0.1,0.1,0.1,0.2,0.1,0.4v7.3h6.5v-7.3
			c0-0.1,0-0.3,0.1-0.4l0.1-0.3h-7L374.9,267.2z M381.2,267.3c0,0.1,0,0.2,0,0.3v7h-5.8v-7c0-0.1,0-0.2,0-0.3H381.2z M366.8,267.2
			c0.1,0.1,0.1,0.2,0.1,0.4v7.3h6.5v-7.3c0-0.1,0-0.3,0.1-0.4l0.1-0.3h-7L366.8,267.2z M373,267.3c0,0.1,0,0.2,0,0.3v7h-5.8v-7
			c0-0.1,0-0.2,0-0.3H373z M358.6,267.2c0.1,0.1,0.1,0.2,0.1,0.4v7.3h6.5v-7.3c0-0.1,0-0.3,0.1-0.4l0.1-0.3h-7L358.6,267.2z
			 M364.8,267.3c0,0.1,0,0.2,0,0.3v7H359v-7c0-0.1,0-0.2,0-0.3H364.8z M423.9,267.2c0.1,0.1,0.1,0.2,0.1,0.4v7.3h6.5v-7.3
			c0-0.1,0-0.3,0.1-0.4l0.1-0.3h-7L423.9,267.2z M430.2,267.3c0,0.1,0,0.2,0,0.3v7h-5.8v-7c0-0.1,0-0.2,0-0.3H430.2z M415.8,267.2
			c0.1,0.1,0.1,0.2,0.1,0.4v7.3h6.5v-7.3c0-0.1,0-0.3,0.1-0.4l0.1-0.3h-7L415.8,267.2z M422,267.3c0,0.1,0,0.2,0,0.3v7h-5.8v-7
			c0-0.1,0-0.2,0-0.3H422z M407.6,267.2c0.1,0.1,0.1,0.2,0.1,0.4v7.3h6.5v-7.3c0-0.1,0-0.3,0.1-0.4l0.1-0.3h-7L407.6,267.2z
			 M413.9,267.3c0,0.1,0,0.2,0,0.3v7h-5.8v-7c0-0.1,0-0.2,0-0.3H413.9z M399.4,267.2c0.1,0.1,0.1,0.2,0.1,0.4v7.3h6.5v-7.3
			c0-0.1,0-0.3,0.1-0.4l0.1-0.3h-7L399.4,267.2z M405.7,267.3c0,0.1,0,0.2,0,0.3v7h-5.8v-7c0-0.1,0-0.2,0-0.3H405.7z M391.3,267.2
			c0.1,0.1,0.1,0.2,0.1,0.4v7.3h6.5v-7.3c0-0.1,0-0.3,0.1-0.4l0.1-0.3h-7L391.3,267.2z M397.5,267.3c0,0.1,0,0.2,0,0.3v7h-5.8v-7
			c0-0.1,0-0.2,0-0.3H397.5z M383.1,267.2c0.1,0.1,0.1,0.2,0.1,0.4v7.3h6.5v-7.3c0-0.1,0-0.3,0.1-0.4l0.1-0.3h-7L383.1,267.2z
			 M389.4,267.3c0,0.1,0,0.2,0,0.3v7h-5.8v-7c0-0.1,0-0.2,0-0.3H389.4z M374.9,267.2c0.1,0.1,0.1,0.2,0.1,0.4v7.3h6.5v-7.3
			c0-0.1,0-0.3,0.1-0.4l0.1-0.3h-7L374.9,267.2z M381.2,267.3c0,0.1,0,0.2,0,0.3v7h-5.8v-7c0-0.1,0-0.2,0-0.3H381.2z M366.8,267.2
			c0.1,0.1,0.1,0.2,0.1,0.4v7.3h6.5v-7.3c0-0.1,0-0.3,0.1-0.4l0.1-0.3h-7L366.8,267.2z M373,267.3c0,0.1,0,0.2,0,0.3v7h-5.8v-7
			c0-0.1,0-0.2,0-0.3H373z M358.6,267.2c0.1,0.1,0.1,0.2,0.1,0.4v7.3h6.5v-7.3c0-0.1,0-0.3,0.1-0.4l0.1-0.3h-7L358.6,267.2z
			 M364.8,267.3c0,0.1,0,0.2,0,0.3v7H359v-7c0-0.1,0-0.2,0-0.3H364.8z M438,276.1h-2.2c-0.3-0.9-1.1-1.5-2-1.5h-1.2v-7
			c0-0.1,0-0.3-0.1-0.4c0.5-0.3,0.7-1,0.4-1.5c-0.2-0.3-0.6-0.5-1-0.5h-74.6c-0.6,0-1.1,0.5-1.1,1.1c0,0.4,0.2,0.8,0.5,1
			c-0.1,0.1-0.1,0.3-0.1,0.4v7h-1.2c-0.9,0-1.7,0.6-2,1.5H351c-0.9,0-1.7,0.7-1.7,1.7v98c0,0.9,0.7,1.7,1.7,1.7h87
			c0.9,0,1.7-0.7,1.7-1.7v-98C439.6,276.8,438.9,276.1,438,276.1z M439.3,375.8c0,0.5-0.3,1-0.8,1.2c-0.1,0.1-0.3,0.1-0.5,0.1h-86.9
			c-0.2,0-0.3,0-0.5-0.1c-0.5-0.2-0.8-0.7-0.8-1.2v-98c0-0.7,0.6-1.3,1.3-1.3h2.7v-0.1c0.2-0.8,0.8-1.3,1.6-1.3h1.6v-7.3
			c0-0.2,0-0.3,0.1-0.4l0.1-0.2l-0.2-0.1c-0.4-0.1-0.6-0.6-0.4-0.9c0.1-0.3,0.4-0.5,0.7-0.5h74.6c0.4,0,0.7,0.3,0.7,0.7
			c0,0.3-0.2,0.6-0.5,0.7L432,267l0.1,0.2c0.1,0.1,0.1,0.3,0.1,0.4v7.3h1.6c0.8,0,1.5,0.6,1.6,1.3v0.1h2.5c0.7,0,1.3,0.6,1.3,1.3
			L439.3,375.8L439.3,375.8z M358.5,267l0.1,0.3c0.1,0.1,0.1,0.2,0.1,0.4v7.3h6.5v-7.3c0-0.1,0-0.3,0.1-0.4l0.1-0.3H358.5z
			 M364.8,267.6v7H359v-7c0-0.1,0-0.2,0-0.3h5.8C364.8,267.4,364.8,267.5,364.8,267.6L364.8,267.6z M366.6,267l0.1,0.3
			c0.1,0.1,0.1,0.2,0.1,0.4v7.3h6.5v-7.3c0-0.1,0-0.3,0.1-0.4l0.1-0.3H366.6z M373,267.6v7h-5.8v-7c0-0.1,0-0.2,0-0.3h5.8
			C373,267.4,373,267.5,373,267.6L373,267.6z M374.8,267l0.1,0.3c0.1,0.1,0.1,0.2,0.1,0.4v7.3h6.5v-7.3c0-0.1,0-0.3,0.1-0.4l0.1-0.3
			H374.8z M381.2,267.6v7h-5.8v-7c0-0.1,0-0.2,0-0.3h5.8C381.2,267.4,381.2,267.5,381.2,267.6L381.2,267.6z M383,267l0.1,0.3
			c0.1,0.1,0.1,0.2,0.1,0.4v7.3h6.5v-7.3c0-0.1,0-0.3,0.1-0.4l0.1-0.3H383z M389.3,267.6v7h-5.8v-7c0-0.1,0-0.2,0-0.3h5.8
			C389.3,267.4,389.3,267.5,389.3,267.6z M391.1,267l0.1,0.3c0.1,0.1,0.1,0.2,0.1,0.4v7.3h6.5v-7.3c0-0.1,0-0.3,0.1-0.4l0.1-0.3
			H391.1z M397.5,267.6v7h-5.8v-7c0-0.1,0-0.2,0-0.3h5.8C397.5,267.4,397.5,267.5,397.5,267.6z M399.3,267l0.1,0.3
			c0.1,0.1,0.1,0.2,0.1,0.4v7.3h6.5v-7.3c0-0.1,0-0.3,0.1-0.4l0.1-0.3H399.3z M405.7,267.6v7h-5.8v-7c0-0.1,0-0.2,0-0.3h5.8
			C405.7,267.4,405.7,267.5,405.7,267.6z M407.5,267l0.1,0.3c0.1,0.1,0.1,0.2,0.1,0.4v7.3h6.5v-7.3c0-0.1,0-0.3,0.1-0.4l0.1-0.3
			H407.5z M413.8,267.6v7H408v-7c0-0.1,0-0.2,0-0.3h5.8C413.8,267.4,413.8,267.5,413.8,267.6z M415.6,267l0.1,0.3
			c0.1,0.1,0.1,0.2,0.1,0.4v7.3h6.5v-7.3c0-0.1,0-0.3,0.1-0.4l0.1-0.3H415.6z M422,267.6v7h-5.8v-7c0-0.1,0-0.2,0-0.3h5.8
			C422,267.4,422,267.5,422,267.6z M423.8,267l0.1,0.3c0.1,0.1,0.1,0.2,0.1,0.4v7.3h6.5v-7.3c0-0.1,0-0.3,0.1-0.4l0.1-0.3H423.8z
			 M430.2,267.6v7h-5.8v-7c0-0.1,0-0.2,0-0.3h5.8C430.2,267.4,430.2,267.5,430.2,267.6z M358.5,267l0.1,0.3c0.1,0.1,0.1,0.2,0.1,0.4
			v7.3h6.5v-7.3c0-0.1,0-0.3,0.1-0.4l0.1-0.3H358.5z M364.8,267.6v7H359v-7c0-0.1,0-0.2,0-0.3h5.8
			C364.8,267.4,364.8,267.5,364.8,267.6L364.8,267.6z M366.6,267l0.1,0.3c0.1,0.1,0.1,0.2,0.1,0.4v7.3h6.5v-7.3c0-0.1,0-0.3,0.1-0.4
			l0.1-0.3H366.6z M373,267.6v7h-5.8v-7c0-0.1,0-0.2,0-0.3h5.8C373,267.4,373,267.5,373,267.6L373,267.6z M374.8,267l0.1,0.3
			c0.1,0.1,0.1,0.2,0.1,0.4v7.3h6.5v-7.3c0-0.1,0-0.3,0.1-0.4l0.1-0.3H374.8z M381.2,267.6v7h-5.8v-7c0-0.1,0-0.2,0-0.3h5.8
			C381.2,267.4,381.2,267.5,381.2,267.6L381.2,267.6z M383,267l0.1,0.3c0.1,0.1,0.1,0.2,0.1,0.4v7.3h6.5v-7.3c0-0.1,0-0.3,0.1-0.4
			l0.1-0.3H383z M389.3,267.6v7h-5.8v-7c0-0.1,0-0.2,0-0.3h5.8C389.3,267.4,389.3,267.5,389.3,267.6z M391.1,267l0.1,0.3
			c0.1,0.1,0.1,0.2,0.1,0.4v7.3h6.5v-7.3c0-0.1,0-0.3,0.1-0.4l0.1-0.3H391.1z M397.5,267.6v7h-5.8v-7c0-0.1,0-0.2,0-0.3h5.8
			C397.5,267.4,397.5,267.5,397.5,267.6z M399.3,267l0.1,0.3c0.1,0.1,0.1,0.2,0.1,0.4v7.3h6.5v-7.3c0-0.1,0-0.3,0.1-0.4l0.1-0.3
			H399.3z M405.7,267.6v7h-5.8v-7c0-0.1,0-0.2,0-0.3h5.8C405.7,267.4,405.7,267.5,405.7,267.6z M407.5,267l0.1,0.3
			c0.1,0.1,0.1,0.2,0.1,0.4v7.3h6.5v-7.3c0-0.1,0-0.3,0.1-0.4l0.1-0.3H407.5z M413.8,267.6v7H408v-7c0-0.1,0-0.2,0-0.3h5.8
			C413.8,267.4,413.8,267.5,413.8,267.6z M415.6,267l0.1,0.3c0.1,0.1,0.1,0.2,0.1,0.4v7.3h6.5v-7.3c0-0.1,0-0.3,0.1-0.4l0.1-0.3
			H415.6z M422,267.6v7h-5.8v-7c0-0.1,0-0.2,0-0.3h5.8C422,267.4,422,267.5,422,267.6z M423.8,267l0.1,0.3c0.1,0.1,0.1,0.2,0.1,0.4
			v7.3h6.5v-7.3c0-0.1,0-0.3,0.1-0.4l0.1-0.3H423.8z M430.2,267.6v7h-5.8v-7c0-0.1,0-0.2,0-0.3h5.8
			C430.2,267.4,430.2,267.5,430.2,267.6z M358.5,267l0.1,0.3c0.1,0.1,0.1,0.2,0.1,0.4v7.3h6.5v-7.3c0-0.1,0-0.3,0.1-0.4l0.1-0.3
			H358.5z M364.8,267.6v7H359v-7c0-0.1,0-0.2,0-0.3h5.8C364.8,267.4,364.8,267.5,364.8,267.6L364.8,267.6z M366.6,267l0.1,0.3
			c0.1,0.1,0.1,0.2,0.1,0.4v7.3h6.5v-7.3c0-0.1,0-0.3,0.1-0.4l0.1-0.3H366.6z M373,267.6v7h-5.8v-7c0-0.1,0-0.2,0-0.3h5.8
			C373,267.4,373,267.5,373,267.6L373,267.6z M374.8,267l0.1,0.3c0.1,0.1,0.1,0.2,0.1,0.4v7.3h6.5v-7.3c0-0.1,0-0.3,0.1-0.4l0.1-0.3
			H374.8z M381.2,267.6v7h-5.8v-7c0-0.1,0-0.2,0-0.3h5.8C381.2,267.4,381.2,267.5,381.2,267.6L381.2,267.6z M383,267l0.1,0.3
			c0.1,0.1,0.1,0.2,0.1,0.4v7.3h6.5v-7.3c0-0.1,0-0.3,0.1-0.4l0.1-0.3H383z M389.3,267.6v7h-5.8v-7c0-0.1,0-0.2,0-0.3h5.8
			C389.3,267.4,389.3,267.5,389.3,267.6z M391.1,267l0.1,0.3c0.1,0.1,0.1,0.2,0.1,0.4v7.3h6.5v-7.3c0-0.1,0-0.3,0.1-0.4l0.1-0.3
			H391.1z M397.5,267.6v7h-5.8v-7c0-0.1,0-0.2,0-0.3h5.8C397.5,267.4,397.5,267.5,397.5,267.6z M399.3,267l0.1,0.3
			c0.1,0.1,0.1,0.2,0.1,0.4v7.3h6.5v-7.3c0-0.1,0-0.3,0.1-0.4l0.1-0.3H399.3z M405.7,267.6v7h-5.8v-7c0-0.1,0-0.2,0-0.3h5.8
			C405.7,267.4,405.7,267.5,405.7,267.6z M407.5,267l0.1,0.3c0.1,0.1,0.1,0.2,0.1,0.4v7.3h6.5v-7.3c0-0.1,0-0.3,0.1-0.4l0.1-0.3
			H407.5z M413.8,267.6v7H408v-7c0-0.1,0-0.2,0-0.3h5.8C413.8,267.4,413.8,267.5,413.8,267.6z M415.6,267l0.1,0.3
			c0.1,0.1,0.1,0.2,0.1,0.4v7.3h6.5v-7.3c0-0.1,0-0.3,0.1-0.4l0.1-0.3H415.6z M422,267.6v7h-5.8v-7c0-0.1,0-0.2,0-0.3h5.8
			C422,267.4,422,267.5,422,267.6z M423.8,267l0.1,0.3c0.1,0.1,0.1,0.2,0.1,0.4v7.3h6.5v-7.3c0-0.1,0-0.3,0.1-0.4l0.1-0.3H423.8z
			 M430.2,267.6v7h-5.8v-7c0-0.1,0-0.2,0-0.3h5.8C430.2,267.4,430.2,267.5,430.2,267.6z M358.5,267l0.1,0.3c0.1,0.1,0.1,0.2,0.1,0.4
			v7.3h6.5v-7.3c0-0.1,0-0.3,0.1-0.4l0.1-0.3H358.5z M364.8,267.6v7H359v-7c0-0.1,0-0.2,0-0.3h5.8
			C364.8,267.4,364.8,267.5,364.8,267.6L364.8,267.6z M366.6,267l0.1,0.3c0.1,0.1,0.1,0.2,0.1,0.4v7.3h6.5v-7.3c0-0.1,0-0.3,0.1-0.4
			l0.1-0.3H366.6z M373,267.6v7h-5.8v-7c0-0.1,0-0.2,0-0.3h5.8C373,267.4,373,267.5,373,267.6L373,267.6z M374.8,267l0.1,0.3
			c0.1,0.1,0.1,0.2,0.1,0.4v7.3h6.5v-7.3c0-0.1,0-0.3,0.1-0.4l0.1-0.3H374.8z M381.2,267.6v7h-5.8v-7c0-0.1,0-0.2,0-0.3h5.8
			C381.2,267.4,381.2,267.5,381.2,267.6L381.2,267.6z M383,267l0.1,0.3c0.1,0.1,0.1,0.2,0.1,0.4v7.3h6.5v-7.3c0-0.1,0-0.3,0.1-0.4
			l0.1-0.3H383z M389.3,267.6v7h-5.8v-7c0-0.1,0-0.2,0-0.3h5.8C389.3,267.4,389.3,267.5,389.3,267.6z M391.1,267l0.1,0.3
			c0.1,0.1,0.1,0.2,0.1,0.4v7.3h6.5v-7.3c0-0.1,0-0.3,0.1-0.4l0.1-0.3H391.1z M397.5,267.6v7h-5.8v-7c0-0.1,0-0.2,0-0.3h5.8
			C397.5,267.4,397.5,267.5,397.5,267.6z M399.3,267l0.1,0.3c0.1,0.1,0.1,0.2,0.1,0.4v7.3h6.5v-7.3c0-0.1,0-0.3,0.1-0.4l0.1-0.3
			H399.3z M405.7,267.6v7h-5.8v-7c0-0.1,0-0.2,0-0.3h5.8C405.7,267.4,405.7,267.5,405.7,267.6z M407.5,267l0.1,0.3
			c0.1,0.1,0.1,0.2,0.1,0.4v7.3h6.5v-7.3c0-0.1,0-0.3,0.1-0.4l0.1-0.3H407.5z M413.8,267.6v7H408v-7c0-0.1,0-0.2,0-0.3h5.8
			C413.8,267.4,413.8,267.5,413.8,267.6z M415.6,267l0.1,0.3c0.1,0.1,0.1,0.2,0.1,0.4v7.3h6.5v-7.3c0-0.1,0-0.3,0.1-0.4l0.1-0.3
			H415.6z M422,267.6v7h-5.8v-7c0-0.1,0-0.2,0-0.3h5.8C422,267.4,422,267.5,422,267.6z M423.8,267l0.1,0.3c0.1,0.1,0.1,0.2,0.1,0.4
			v7.3h6.5v-7.3c0-0.1,0-0.3,0.1-0.4l0.1-0.3H423.8z M430.2,267.6v7h-5.8v-7c0-0.1,0-0.2,0-0.3h5.8
			C430.2,267.4,430.2,267.5,430.2,267.6z"/>
		<path class="st9" d="M380.5,299.5h-13.7c-0.6,0-1.1-0.5-1.1-1.1v-7.3c0-0.6,0.5-1.1,1.1-1.1h13.7c0.6,0,1.1,0.5,1.1,1.1v7.3
			C381.6,299,381.1,299.4,380.5,299.5z"/>
		<path class="st9" d="M401.4,299.5h-13.7c-0.6,0-1.1-0.5-1.1-1.1v-7.3c0-0.6,0.5-1.1,1.1-1.1h13.7c0.6,0,1.1,0.5,1.1,1.1v7.3
			C402.5,299,402,299.4,401.4,299.5z"/>
		<path class="st9" d="M422.2,299.5h-13.7c-0.6,0-1.1-0.5-1.1-1.1v-7.3c0-0.6,0.5-1.1,1.1-1.1h13.7c0.6,0,1.1,0.5,1.1,1.1v7.3
			C423.3,299,422.8,299.4,422.2,299.5z"/>
		<path class="st9" d="M380.5,323.8h-13.7c-0.6,0-1.1-0.5-1.1-1.1v-7.3c0-0.6,0.5-1.1,1.1-1.1h13.7c0.6,0,1.1,0.5,1.1,1.1v7.3
			C381.6,323.3,381.1,323.8,380.5,323.8z"/>
		<path class="st9" d="M401.4,323.8h-13.7c-0.6,0-1.1-0.5-1.1-1.1v-7.3c0-0.6,0.5-1.1,1.1-1.1h13.7c0.6,0,1.1,0.5,1.1,1.1v7.3
			C402.5,323.3,402,323.8,401.4,323.8z"/>
		<path class="st9" d="M422.2,323.8h-13.7c-0.6,0-1.1-0.5-1.1-1.1v-7.3c0-0.6,0.5-1.1,1.1-1.1h13.7c0.6,0,1.1,0.5,1.1,1.1v7.3
			C423.3,323.3,422.8,323.8,422.2,323.8z"/>
		<path class="st9" d="M380.5,348.1h-13.7c-0.6,0-1.1-0.5-1.1-1.1v-7.3c0-0.6,0.5-1.1,1.1-1.1h13.7c0.6,0,1.1,0.5,1.1,1.1v7.3
			C381.6,347.6,381.1,348.1,380.5,348.1z"/>
		<path class="st9" d="M401.4,348.1h-13.7c-0.6,0-1.1-0.5-1.1-1.1v-7.3c0-0.6,0.5-1.1,1.1-1.1h13.7c0.6,0,1.1,0.5,1.1,1.1v7.3
			C402.5,347.6,402,348.1,401.4,348.1z"/>
		<path class="st9" d="M422.2,348.1h-13.7c-0.6,0-1.1-0.5-1.1-1.1v-7.3c0-0.6,0.5-1.1,1.1-1.1h13.7c0.6,0,1.1,0.5,1.1,1.1v7.3
			C423.3,347.6,422.8,348.1,422.2,348.1z"/>
		<path class="st11" d="M378.3,300.4h-15.9c-0.8,0-1.4-0.6-1.4-1.4v-8.4c0-0.8,0.6-1.4,1.4-1.4h15.9c0.8,0,1.4,0.6,1.4,1.4v8.4
			C379.8,299.7,379.1,300.4,378.3,300.4z M362.5,289.4c-0.6,0-1.1,0.5-1.1,1.1v8.4c0,0.6,0.5,1.1,1.1,1.1h15.9
			c0.6,0,1.1-0.5,1.1-1.1v-8.4c0-0.6-0.5-1.1-1.1-1.1H362.5z"/>
		<path class="st11" d="M402.4,300.4h-15.9c-0.8,0-1.4-0.6-1.4-1.4v-8.4c0-0.8,0.6-1.4,1.4-1.4h15.9c0.8,0,1.4,0.6,1.4,1.4v8.4
			C403.9,299.7,403.2,300.4,402.4,300.4z M386.6,289.4c-0.6,0-1.1,0.5-1.1,1.1v8.4c0,0.6,0.5,1.1,1.1,1.1h15.9
			c0.6,0,1.1-0.5,1.1-1.1v-8.4c0-0.6-0.5-1.1-1.1-1.1H386.6z"/>
		<path class="st11" d="M426.6,300.4h-15.9c-0.8,0-1.4-0.6-1.4-1.4v-8.4c0-0.8,0.6-1.4,1.4-1.4h15.9c0.8,0,1.4,0.6,1.4,1.4v8.4
			C428,299.7,427.4,300.4,426.6,300.4z M410.7,289.4c-0.6,0-1.1,0.5-1.1,1.1v8.4c0,0.6,0.5,1.1,1.1,1.1h15.9c0.6,0,1.1-0.5,1.1-1.1
			v-8.4c0-0.6-0.5-1.1-1.1-1.1H410.7z"/>
		<path class="st11" d="M378.3,324.7h-15.9c-0.8,0-1.4-0.6-1.4-1.4v-8.4c0-0.8,0.6-1.4,1.4-1.4h15.9c0.8,0,1.4,0.6,1.4,1.4v8.4
			C379.8,324.1,379.1,324.7,378.3,324.7z M362.5,313.7c-0.6,0-1.1,0.5-1.1,1.1v8.4c0,0.6,0.5,1.1,1.1,1.1h15.9
			c0.6,0,1.1-0.5,1.1-1.1v-8.4c0-0.6-0.5-1.1-1.1-1.1H362.5z"/>
		<path class="st11" d="M402.4,324.7h-15.9c-0.8,0-1.4-0.6-1.4-1.4v-8.4c0-0.8,0.6-1.4,1.4-1.4h15.9c0.8,0,1.4,0.6,1.4,1.4v8.4
			C403.9,324.1,403.2,324.7,402.4,324.7z M386.6,313.7c-0.6,0-1.1,0.5-1.1,1.1v8.4c0,0.6,0.5,1.1,1.1,1.1h15.9
			c0.6,0,1.1-0.5,1.1-1.1v-8.4c0-0.6-0.5-1.1-1.1-1.1H386.6z"/>
		<path class="st11" d="M426.6,324.7h-15.9c-0.8,0-1.4-0.6-1.4-1.4v-8.4c0-0.8,0.6-1.4,1.4-1.4h15.9c0.8,0,1.4,0.6,1.4,1.4v8.4
			C428,324.1,427.4,324.7,426.6,324.7z M410.7,313.7c-0.6,0-1.1,0.5-1.1,1.1v8.4c0,0.6,0.5,1.1,1.1,1.1h15.9c0.6,0,1.1-0.5,1.1-1.1
			v-8.4c0-0.6-0.5-1.1-1.1-1.1H410.7z"/>
		<path class="st11" d="M378.3,349h-15.9c-0.8,0-1.4-0.6-1.4-1.4v-8.4c0-0.8,0.6-1.4,1.4-1.4h15.9c0.8,0,1.4,0.6,1.4,1.4v8.4
			C379.8,348.4,379.1,349,378.3,349z M362.5,338.1c-0.6,0-1.1,0.5-1.1,1.1v8.4c0,0.6,0.5,1.1,1.1,1.1h15.9c0.6,0,1.1-0.5,1.1-1.1
			v-8.4c0-0.6-0.5-1.1-1.1-1.1H362.5z"/>
		<path class="st11" d="M402.4,349h-15.9c-0.8,0-1.4-0.6-1.4-1.4v-8.4c0-0.8,0.6-1.4,1.4-1.4h15.9c0.8,0,1.4,0.6,1.4,1.4v8.4
			C403.9,348.4,403.2,349,402.4,349z M386.6,338.1c-0.6,0-1.1,0.5-1.1,1.1v8.4c0,0.6,0.5,1.1,1.1,1.1h15.9c0.6,0,1.1-0.5,1.1-1.1
			v-8.4c0-0.6-0.5-1.1-1.1-1.1H386.6z"/>
		<path class="st11" d="M426.6,349h-15.9c-0.8,0-1.4-0.6-1.4-1.4v-8.4c0-0.8,0.6-1.4,1.4-1.4h15.9c0.8,0,1.4,0.6,1.4,1.4v8.4
			C428,348.4,427.4,349,426.6,349z M410.7,338.1c-0.6,0-1.1,0.5-1.1,1.1v8.4c0,0.6,0.5,1.1,1.1,1.1h15.9c0.6,0,1.1-0.5,1.1-1.1v-8.4
			c0-0.6-0.5-1.1-1.1-1.1H410.7z"/>
		<path class="st11" d="M491.2,377.7H304.1c-0.1,0-0.2-0.1-0.2-0.2s0.1-0.2,0.2-0.2h187.1c0.1,0,0.2,0.1,0.2,0.2
			S491.3,377.7,491.2,377.7z"/>
		<path class="st11" d="M403.9,359.7c0-0.9-0.7-1.6-1.6-1.6h-7.8v19.2h9.4V359.7z"/>
		<path class="st11" d="M394.7,377.1H385v-17.4c0-1,0.8-1.8,1.8-1.8h8L394.7,377.1L394.7,377.1z M385.3,376.8h9v-18.4h-7.6
			c-0.8,0-1.4,0.6-1.4,1.4V376.8z"/>
		<circle class="st11" cx="386.2" cy="368.3" r="0.6"/>
	</g>
</g>
</svg>
